<svg width="80" height="80" viewBox="0 0 80 80" fill="none" xmlns="http://www.w3.org/2000/svg">
<path d="M73.75 2.5H6.25C5.25544 2.5 4.30161 2.89509 3.59835 3.59835C2.89509 4.30161 2.5 5.25544 2.5 6.25V73.75C2.5 74.7446 2.89509 75.6984 3.59835 76.4016C4.30161 77.1049 5.25544 77.5 6.25 77.5H73.75C74.7446 77.5 75.6984 77.1049 76.4016 76.4016C77.1049 75.6984 77.5 74.7446 77.5 73.75V6.25C77.5 5.25544 77.1049 4.30161 76.4016 3.59835C75.6984 2.89509 74.7446 2.5 73.75 2.5ZM6.25 5H73.75C74.0815 5 74.3995 5.1317 74.6339 5.36612C74.8683 5.60054 75 5.91848 75 6.25V12.5H5V6.25C5 5.91848 5.1317 5.60054 5.36612 5.36612C5.60054 5.1317 5.91848 5 6.25 5ZM73.75 75H6.25C5.91848 75 5.60054 74.8683 5.36612 74.6339C5.1317 74.3995 5 74.0815 5 73.75V15H75V73.75C75 74.0815 74.8683 74.3995 74.6339 74.6339C74.3995 74.8683 74.0815 75 73.75 75Z" fill="#232946"/>
<path d="M8.75 10H10C10.3315 10 10.6495 9.8683 10.8839 9.63388C11.1183 9.39946 11.25 9.08152 11.25 8.75C11.25 8.41848 11.1183 8.10054 10.8839 7.86612C10.6495 7.6317 10.3315 7.5 10 7.5H8.75C8.41848 7.5 8.10054 7.6317 7.86612 7.86612C7.6317 8.10054 7.5 8.41848 7.5 8.75C7.5 9.08152 7.6317 9.39946 7.86612 9.63388C8.10054 9.8683 8.41848 10 8.75 10Z" fill="#232946"/>
<path d="M15 10H16.25C16.5815 10 16.8995 9.8683 17.1339 9.63388C17.3683 9.39946 17.5 9.08152 17.5 8.75C17.5 8.41848 17.3683 8.10054 17.1339 7.86612C16.8995 7.6317 16.5815 7.5 16.25 7.5H15C14.6685 7.5 14.3505 7.6317 14.1161 7.86612C13.8817 8.10054 13.75 8.41848 13.75 8.75C13.75 9.08152 13.8817 9.39946 14.1161 9.63388C14.3505 9.8683 14.6685 10 15 10Z" fill="#232946"/>
<path d="M21.25 10H22.5C22.8315 10 23.1495 9.8683 23.3839 9.63388C23.6183 9.39946 23.75 9.08152 23.75 8.75C23.75 8.41848 23.6183 8.10054 23.3839 7.86612C23.1495 7.6317 22.8315 7.5 22.5 7.5H21.25C20.9185 7.5 20.6005 7.6317 20.3661 7.86612C20.1317 8.10054 20 8.41848 20 8.75C20 9.08152 20.1317 9.39946 20.3661 9.63388C20.6005 9.8683 20.9185 10 21.25 10Z" fill="#232946"/>
<path d="M40 22.5C35.5499 22.5 31.1998 23.8196 27.4997 26.2919C23.7996 28.7643 20.9157 32.2783 19.2127 36.3896C17.5097 40.501 17.0642 45.025 17.9323 49.3895C18.8005 53.7541 20.9434 57.7632 24.0901 60.9099C27.2368 64.0566 31.2459 66.1995 35.6105 67.0677C39.975 67.9358 44.4991 67.4903 48.6104 65.7873C52.7217 64.0843 56.2357 61.2004 58.7081 57.5003C61.1804 53.8002 62.5 49.4501 62.5 45C62.4931 39.0348 60.1203 33.3158 55.9022 29.0978C51.6842 24.8797 45.9652 22.5069 40 22.5ZM40 65C36.0444 65 32.1776 63.827 28.8886 61.6294C25.5996 59.4318 23.0362 56.3082 21.5224 52.6537C20.0087 48.9991 19.6126 44.9778 20.3843 41.0982C21.156 37.2186 23.0608 33.6549 25.8579 30.8579C28.6549 28.0608 32.2186 26.156 36.0982 25.3843C39.9778 24.6126 43.9992 25.0087 47.6537 26.5224C51.3082 28.0362 54.4318 30.5996 56.6294 33.8886C58.827 37.1776 60 41.0444 60 45C59.9937 50.3024 57.8846 55.3858 54.1352 59.1352C50.3858 62.8846 45.3024 64.9937 40 65Z" fill="#232946"/>
<path d="M48.838 60.388C48.5065 60.3879 48.1886 60.2562 47.9543 60.0217L40.0005 52.068L32.0468 60.0217C31.8123 60.2561 31.4945 60.3877 31.163 60.3877C30.8316 60.3877 30.5137 60.2561 30.2793 60.0217L24.9793 54.7218C24.7449 54.4873 24.6133 54.1695 24.6133 53.838C24.6133 53.5065 24.7449 53.1887 24.9793 52.9543L32.933 45.0005L24.9793 37.0468C24.7449 36.8123 24.6133 36.4945 24.6133 36.163C24.6133 35.8316 24.7449 35.5137 24.9793 35.2793L30.2793 29.9793C30.5137 29.7449 30.8316 29.6133 31.163 29.6133C31.4945 29.6133 31.8123 29.7449 32.0468 29.9793L40.0005 37.933L47.9543 29.9793C48.1887 29.7449 48.5065 29.6133 48.838 29.6133C49.1695 29.6133 49.4873 29.7449 49.7218 29.9793L55.0217 35.2793C55.2561 35.5137 55.3877 35.8316 55.3877 36.163C55.3877 36.4945 55.2561 36.8123 55.0217 37.0468L47.068 45.0005L55.0217 52.9543C55.2561 53.1887 55.3877 53.5065 55.3877 53.838C55.3877 54.1695 55.2561 54.4873 55.0217 54.7218L49.7218 60.0217C49.4874 60.2562 49.1695 60.3879 48.838 60.388ZM40.0005 49.0505C40.332 49.0506 40.6499 49.1823 40.8843 49.4168L48.838 57.3755L52.3755 53.838L44.4218 45.8843C44.1874 45.6498 44.0558 45.332 44.0558 45.0005C44.0558 44.6691 44.1874 44.3512 44.4218 44.1168L52.3755 36.163L48.838 32.6255L40.8843 40.5793C40.6498 40.8136 40.332 40.9452 40.0005 40.9452C39.6691 40.9452 39.3512 40.8136 39.1168 40.5793L31.163 32.6255L27.6255 36.163L35.5793 44.1168C35.8136 44.3512 35.9452 44.6691 35.9452 45.0005C35.9452 45.332 35.8136 45.6498 35.5793 45.8843L27.6255 53.838L31.163 57.3755L39.1168 49.4218C39.2324 49.3048 39.37 49.2118 39.5216 49.148C39.6733 49.0843 39.836 49.0512 40.0005 49.0505Z" fill="#232946"/>
</svg>
