<svg width="180" height="180" viewBox="0 0 180 180" fill="none" xmlns="http://www.w3.org/2000/svg">
<path d="M159.388 108.457C157.413 105.829 154.596 103.958 151.407 103.155C151.119 103.085 150.834 103.011 150.546 102.945C155.119 93.6692 157.499 83.4665 157.5 73.125C157.5 35.905 127.22 5.625 90 5.625C52.7801 5.625 22.5 35.905 22.5 73.125C22.5014 83.4665 24.8807 93.6692 29.4539 102.945C29.1657 103.011 28.8809 103.085 28.5926 103.155C26.1349 103.771 23.8845 105.027 22.0708 106.796C20.2572 108.565 18.9453 110.783 18.2691 113.225C17.5928 115.666 17.5764 118.244 18.2215 120.694C18.8666 123.144 20.1501 125.379 21.941 127.171L35.3953 140.625L23.3227 152.698C22.9297 153.091 22.6621 153.593 22.5539 154.138C22.4456 154.684 22.5015 155.249 22.7144 155.763C22.9273 156.277 23.2877 156.716 23.7502 157.025C24.2126 157.335 24.7563 157.5 25.3125 157.5H39.375V171.562C39.3753 172.119 39.5405 172.662 39.8496 173.125C40.1588 173.587 40.598 173.948 41.1119 174.161C41.6258 174.374 42.1912 174.429 42.7369 174.321C43.2825 174.213 43.7837 173.945 44.1774 173.552L63.8649 153.865C65.8809 151.843 67.0131 149.105 67.0131 146.25C67.0131 143.395 65.8809 140.657 63.8649 138.635L57.5403 132.311C67.4897 137.765 78.6534 140.625 90 140.625C101.347 140.625 112.51 137.765 122.46 132.311L116.135 138.635C114.119 140.657 112.987 143.395 112.987 146.25C112.987 149.105 114.119 151.843 116.135 153.865L135.823 173.552C136.216 173.945 136.718 174.213 137.263 174.321C137.809 174.429 138.374 174.374 138.888 174.161C139.402 173.948 139.841 173.587 140.15 173.125C140.46 172.662 140.625 172.119 140.625 171.562V157.5H154.688C155.244 157.5 155.787 157.335 156.25 157.025C156.712 156.716 157.073 156.277 157.286 155.763C157.499 155.249 157.554 154.684 157.446 154.138C157.338 153.593 157.07 153.091 156.677 152.698L144.605 140.625L158.059 127.171C160.483 124.726 161.949 121.494 162.193 118.06C162.437 114.627 161.442 111.219 159.388 108.457V108.457ZM28.125 73.125C28.125 39.0059 55.8809 11.25 90 11.25C124.119 11.25 151.875 39.0059 151.875 73.125C151.874 83.0465 149.485 92.8221 144.911 101.626H144.907C143.958 101.412 143.009 101.208 142.056 101.007C146.663 92.4363 149.07 82.8558 149.063 73.125C149.063 40.5562 122.569 14.0625 90 14.0625C57.4313 14.0625 30.9375 40.5562 30.9375 73.125C30.9298 82.8558 33.3373 92.4363 37.9442 101.007C36.9914 101.208 36.0422 101.412 35.093 101.626H35.0895C30.5152 92.8221 28.1265 83.0465 28.125 73.125V73.125ZM62.7715 97.0769C61.7995 94.0889 61.6142 90.9008 62.2336 87.8203C62.4689 86.6403 62.8198 85.4863 63.2813 84.375L72.8332 61.4426C73.4721 59.9032 74.5534 58.588 75.9403 57.6636C77.3272 56.7393 78.9572 56.2473 80.6239 56.25H99.3762C101.043 56.2473 102.673 56.7393 104.06 57.6636C105.447 58.588 106.528 59.9032 107.167 61.4426L116.719 84.375C118.399 88.4125 118.58 92.9177 117.229 97.0769C108.262 96.1099 99.2504 95.6252 90.2321 95.625H89.768C80.7497 95.6252 71.7378 96.1099 62.7715 97.0769V97.0769ZM95.625 39.375H84.375C82.8838 39.373 81.4542 38.7798 80.3997 37.7253C79.3453 36.6708 78.752 35.2412 78.75 33.75V30.9375H82.0442C82.626 32.5826 83.7035 34.0069 85.1283 35.0142C86.5531 36.0216 88.2551 36.5625 90 36.5625C91.745 36.5625 93.447 36.0216 94.8718 35.0142C96.2966 34.0069 97.3741 32.5826 97.9559 30.9375H101.25V33.75C101.248 35.2412 100.655 36.6708 99.6003 37.7253C98.5459 38.7798 97.1163 39.373 95.625 39.375ZM98.4375 47.8125C98.4365 48.5581 98.1399 49.2729 97.6127 49.8001C97.0854 50.3274 96.3706 50.624 95.625 50.625H84.375C83.6291 50.625 82.9137 50.3287 82.3863 49.8012C81.8588 49.2738 81.5625 48.5584 81.5625 47.8125C81.5625 47.0666 81.8588 46.3512 82.3863 45.8238C82.9137 45.2963 83.6291 45 84.375 45H95.625C96.3706 45.001 97.0854 45.2976 97.6127 45.8248C98.1399 46.3521 98.4365 47.0669 98.4375 47.8125V47.8125ZM121.908 82.2093L112.356 59.2769C111.554 57.3429 110.329 55.613 108.771 54.2144C107.213 52.8158 105.361 51.7839 103.352 51.1946C103.953 49.8266 104.179 48.3234 104.006 46.8394C103.834 45.3553 103.27 43.9439 102.372 42.75C103.769 41.7026 104.904 40.344 105.686 38.7818C106.468 37.2196 106.875 35.4968 106.875 33.75V28.125C106.875 27.7556 106.802 27.3899 106.661 27.0486C106.52 26.7073 106.313 26.3972 106.051 26.136C105.79 25.8749 105.48 25.6677 105.139 25.5264C104.798 25.3851 104.432 25.3124 104.063 25.3125H95.625C95.2557 25.3124 94.8899 25.3851 94.5486 25.5264C94.2073 25.6677 93.8973 25.8749 93.6361 26.136C93.3749 26.3972 93.1677 26.7073 93.0264 27.0486C92.8851 27.3899 92.8124 27.7556 92.8125 28.125C92.8125 28.8709 92.5162 29.5863 91.9888 30.1137C91.4613 30.6412 90.7459 30.9375 90 30.9375C89.2541 30.9375 88.5387 30.6412 88.0113 30.1137C87.4838 29.5863 87.1875 28.8709 87.1875 28.125C87.1876 27.7556 87.1149 27.3899 86.9736 27.0486C86.8323 26.7073 86.6252 26.3972 86.364 26.136C86.1028 25.8749 85.7927 25.6677 85.4514 25.5264C85.1102 25.3851 84.7444 25.3124 84.375 25.3125H75.9375C75.5682 25.3124 75.2024 25.3851 74.8611 25.5264C74.5198 25.6677 74.2098 25.8749 73.9486 26.136C73.6874 26.3972 73.4802 26.7073 73.3389 27.0486C73.1976 27.3899 73.1249 27.7556 73.125 28.125V33.75C73.1253 35.4968 73.5324 37.2196 74.3141 38.7818C75.0958 40.344 76.2306 41.7026 77.6285 42.75C76.7304 43.9439 76.1661 45.3553 75.9937 46.8394C75.8214 48.3234 76.0471 49.8266 76.6477 51.1946C74.6386 51.7839 72.7871 52.8158 71.2291 54.2144C69.6711 55.613 68.4461 57.3429 67.6442 59.2769L58.0887 82.2129C56.04 87.1385 55.6924 92.6066 57.1008 97.752C52.6325 98.3356 48.1805 99.0387 43.7449 99.8614C39.0331 91.7393 36.555 82.5148 36.5625 73.125C36.5625 43.6605 60.5356 19.6875 90 19.6875C119.464 19.6875 143.438 43.6605 143.438 73.125C143.445 82.5148 140.967 91.7393 136.255 99.8613C131.822 99.0387 127.37 98.3355 122.899 97.752C124.308 92.6052 123.96 87.1353 121.908 82.2093V82.2093ZM59.8852 142.615C60.8492 143.579 61.3907 144.887 61.3907 146.25C61.3907 147.613 60.8492 148.921 59.8852 149.885L45 164.774V154.688C45.0001 154.318 44.9274 153.952 44.7861 153.611C44.6448 153.27 44.4377 152.96 44.1765 152.699C43.9153 152.437 43.6052 152.23 43.2639 152.089C42.9227 151.948 42.5569 151.875 42.1875 151.875H32.1012L39.6352 144.341C41.6882 145.518 44.0714 145.986 46.4171 145.674C48.7628 145.362 50.9407 144.287 52.6149 142.615C53.0919 142.137 53.6585 141.757 54.2822 141.499C54.906 141.24 55.5747 141.107 56.25 141.107C56.9254 141.107 57.5941 141.24 58.2178 141.499C58.8416 141.757 59.4082 142.137 59.8852 142.615H59.8852ZM39.9129 130.827C40.6837 129.668 41.8599 128.839 43.2106 128.503C43.8961 128.331 44.584 128.164 45.2743 128.004L53.195 135.925C51.4711 136.43 49.9027 137.362 48.6352 138.635C48.1582 139.113 47.5916 139.493 46.9678 139.751C46.3441 140.01 45.6754 140.143 45 140.143C44.3247 140.143 43.656 140.01 43.0322 139.751C42.4084 139.493 41.8418 139.113 41.3649 138.635L40.5844 137.858C39.6841 136.94 39.1262 135.741 39.004 134.461C38.8818 133.182 39.2026 131.899 39.9129 130.827V130.827ZM90 135C78.4386 135.039 67.1034 131.796 57.3117 125.648C58.8094 125.416 60.3106 125.205 61.8153 125.016C70.4641 129.722 80.1537 132.188 90 132.188C99.8464 132.188 109.536 129.722 118.185 125.016C119.689 125.206 121.191 125.416 122.688 125.648C112.897 131.796 101.561 135.039 90 135V135ZM73.561 123.964C76.3102 123.82 79.0629 123.749 81.8192 123.75H98.1809C100.934 123.75 103.686 123.821 106.439 123.964C95.7535 127.429 84.2466 127.429 73.561 123.964ZM147.899 151.875H137.813C137.443 151.875 137.077 151.948 136.736 152.089C136.395 152.23 136.085 152.437 135.824 152.699C135.562 152.96 135.355 153.27 135.214 153.611C135.073 153.952 135 154.318 135 154.688V164.774L120.115 149.885C119.635 149.408 119.255 148.841 118.994 148.217C118.734 147.593 118.6 146.923 118.599 146.247C118.598 145.571 118.731 144.901 118.989 144.276C119.247 143.651 119.627 143.083 120.105 142.605C120.583 142.126 121.151 141.747 121.776 141.489C122.401 141.231 123.071 141.098 123.747 141.099C124.423 141.1 125.093 141.234 125.717 141.494C126.341 141.755 126.908 142.135 127.385 142.615C129.059 144.287 131.237 145.362 133.583 145.674C135.929 145.986 138.312 145.518 140.365 144.341L147.899 151.875ZM126.805 135.925L134.726 128.004C135.415 128.166 136.103 128.332 136.789 128.503C137.747 128.742 138.624 129.231 139.331 129.918C140.039 130.606 140.552 131.468 140.819 132.418C141.085 133.368 141.096 134.372 140.85 135.327C140.603 136.282 140.108 137.156 139.416 137.858L138.635 138.635C138.158 139.113 137.592 139.493 136.968 139.751C136.344 140.01 135.675 140.143 135 140.143C134.325 140.143 133.656 140.01 133.032 139.751C132.408 139.493 131.842 139.113 131.365 138.635C130.097 137.362 128.529 136.43 126.805 135.925V135.925ZM154.079 123.191L146.261 131.01C145.948 129.833 145.443 128.717 144.766 127.705C143.22 125.382 140.862 123.72 138.154 123.047C125.08 119.779 111.656 118.126 98.1809 118.125H81.8192C68.3439 118.126 54.9196 119.779 41.8465 123.047C39.1383 123.72 36.7796 125.382 35.2336 127.705C34.5567 128.717 34.0518 129.833 33.7395 131.01L25.9207 123.191C24.8328 122.104 24.0529 120.747 23.6608 119.259C23.2687 117.772 23.2783 116.207 23.6887 114.725C24.099 113.242 24.8955 111.895 25.9967 110.821C27.0979 109.747 28.4644 108.985 29.9567 108.612C49.5185 103.725 69.6051 101.253 89.768 101.25H90.2321C110.395 101.253 130.482 103.725 150.043 108.612C151.536 108.985 152.902 109.747 154.003 110.821C155.105 111.895 155.901 113.242 156.311 114.725C156.722 116.207 156.731 117.772 156.339 119.259C155.947 120.747 155.167 122.104 154.079 123.191V123.191Z" fill="#232946"/>
<path d="M92.8125 92.8125V90C95.0503 90 97.1964 89.1111 98.7787 87.5287C100.361 85.9464 101.25 83.8003 101.25 81.5625C101.25 79.3247 100.361 77.1786 98.7787 75.5963C97.1964 74.0139 95.0503 73.125 92.8125 73.125H87.1875C86.4416 73.125 85.7262 72.8287 85.1988 72.3012C84.6713 71.7738 84.375 71.0584 84.375 70.3125C84.375 69.5666 84.6713 68.8512 85.1988 68.3238C85.7262 67.7963 86.4416 67.5 87.1875 67.5H92.8125C93.5582 67.5009 94.273 67.7974 94.8003 68.3247C95.3276 68.852 95.6241 69.5668 95.625 70.3125H101.25C101.247 68.0755 100.358 65.9309 98.7759 64.3491C97.1941 62.7673 95.0495 61.8776 92.8125 61.875V59.0625H87.1875V61.875C84.9497 61.875 82.8036 62.7639 81.2213 64.3463C79.6389 65.9286 78.75 68.0747 78.75 70.3125C78.75 72.5503 79.6389 74.6964 81.2213 76.2787C82.8036 77.8611 84.9497 78.75 87.1875 78.75H92.8125C93.5584 78.75 94.2738 79.0463 94.8012 79.5738C95.3287 80.1012 95.625 80.8166 95.625 81.5625C95.625 82.3084 95.3287 83.0238 94.8012 83.5512C94.2738 84.0787 93.5584 84.375 92.8125 84.375H87.1875C86.4418 84.3741 85.727 84.0776 85.1997 83.5503C84.6724 83.023 84.3759 82.3082 84.375 81.5625H78.75C78.7526 83.7995 79.6423 85.9441 81.2241 87.5259C82.8059 89.1077 84.9505 89.9974 87.1875 90V92.8125H92.8125Z" fill="#232946"/>
</svg>
