<svg width="180" height="180" viewBox="0 0 180 180" fill="none" xmlns="http://www.w3.org/2000/svg">
<g clip-path="url(#clip0)">
<g filter="url(#filter0_d)">
<path d="M158.717 70.8873L158.689 70.7692C158.222 68.8844 156.316 67.7352 154.432 68.2014C152.547 68.6679 151.398 70.5734 151.864 72.4584L151.885 72.5439C152.275 74.1526 153.713 75.2316 155.298 75.2316C155.573 75.2316 155.851 75.1992 156.13 75.1317C158.016 74.674 159.175 72.7738 158.717 70.8873Z" fill="#232946"/>
</g>
<g filter="url(#filter1_d)">
<path d="M65.6324 114.698C56.8925 109.425 51.6746 100.191 51.6746 89.9975C51.6746 86.8468 52.1791 83.751 53.1737 80.7964C53.7931 78.9567 52.8035 76.9626 50.9638 76.3435C49.124 75.7248 47.1303 76.7141 46.5109 78.5538C45.2727 82.2326 44.6448 86.0829 44.6448 89.9979C44.6448 102.676 51.1332 114.161 62.0007 120.718C62.5692 121.061 63.195 121.224 63.8134 121.224C65.0045 121.224 66.166 120.618 66.8263 119.524C67.8293 117.862 67.2949 115.702 65.6324 114.698Z" fill="#232946"/>
</g>
<g filter="url(#filter2_d)">
<path d="M105.076 63.8889C98.4009 57.6041 89.673 54.1426 80.5004 54.1426C76.2047 54.1426 72.0014 54.8956 68.0077 56.3799C66.188 57.0567 65.2613 59.0799 65.9377 60.9C66.6141 62.72 68.6373 63.6467 70.4577 62.97C73.6654 61.7775 77.0439 61.1728 80.5008 61.1728C87.8748 61.1728 94.8909 63.955 100.256 69.0073C100.935 69.6468 101.801 69.9636 102.665 69.9636C103.601 69.9636 104.534 69.5927 105.225 68.8579C106.556 67.4446 106.489 65.2196 105.076 63.8889Z" fill="#232946"/>
</g>
<g filter="url(#filter3_d)">
<path d="M176.485 91.0563H150.038V83.7839C150.038 80.249 147.162 77.3728 143.627 77.3728H138.908C136.491 66.1404 130.926 55.9099 122.757 47.741C108.896 33.88 89.0916 27.6984 69.7792 31.2025C67.8691 31.5491 66.6014 33.3786 66.948 35.289C67.2947 37.1994 69.1246 38.4657 71.0346 38.1202C88.078 35.0271 105.556 40.482 117.786 52.7128C124.634 59.5609 129.41 68.0483 131.698 77.3732H112.508C108.973 77.3732 106.097 80.2493 106.097 83.7843V91.0567H79.6504C77.709 91.0567 76.1351 92.631 76.1351 94.572V116.136C76.1351 119.436 77.42 122.44 79.5129 124.679V142.719C65.7991 142.485 52.9921 137.06 43.2155 127.283C30.6664 114.734 25.2903 96.8455 28.8345 79.4305C29.2215 77.5282 27.9932 75.672 26.0909 75.2849C24.1879 74.8975 22.3323 76.1262 21.9452 78.0285C17.9297 97.7613 24.0223 118.032 38.2437 132.254C49.1864 143.197 64.0902 149.479 79.5125 149.744V162.482C79.5125 162.812 79.5347 163.136 79.5737 163.455C39.4882 162.957 7.0302 130.199 7.0302 89.9978C7.0302 77.427 10.2277 65.1391 16.3009 54.2498L28.1616 66.1668C28.8214 66.8298 29.7183 67.2025 30.6531 67.2025H52.7628L74.4377 88.8773C75.1243 89.5639 76.024 89.9071 76.9233 89.9071C77.8229 89.9071 78.7229 89.5639 79.4088 88.8773C80.7817 87.5045 80.7817 85.2788 79.4088 83.9055L57.7336 62.2307V40.1209C57.7336 39.1872 57.362 38.2917 56.7007 37.6322L44.807 25.7677C55.6822 19.7148 67.9497 16.5282 80.499 16.5282C109.016 16.5282 135.195 33.2531 147.194 59.1373C147.788 60.4205 149.058 61.1749 150.385 61.1749C150.88 61.1749 151.383 61.0698 151.861 60.848C153.623 60.0313 154.389 57.9416 153.572 56.1803C147.202 42.4384 137.112 30.7936 124.391 22.5052C111.331 13.9956 96.1534 9.49805 80.4994 9.49805C66.0776 9.49805 51.9919 13.3403 39.6485 20.6218L29.5316 10.5285C28.5251 9.52477 27.0141 9.22523 25.7017 9.77016C24.3889 10.3147 23.5339 11.5958 23.5339 13.0168V32.9388H3.55043C2.12977 32.9388 0.849375 33.7935 0.304453 35.1048C-0.240469 36.4165 0.0569532 37.9268 1.05891 38.9337L11.1604 49.0829C3.85488 61.4428 0 75.5507 0 89.9974C0 111.5 8.37352 131.715 23.5779 146.92C38.7823 162.124 58.9978 170.498 80.5001 170.498L168.603 170.501C173.025 170.501 176.622 166.904 176.622 162.482V124.68C178.802 122.353 180 119.334 180 116.13V94.5713C180 92.6303 178.426 91.0563 176.485 91.0563ZM30.5641 21.4891L50.7038 41.5788V55.1857L30.5641 35.0007V21.4891ZM25.5906 39.9697L45.7323 60.1705H32.1142L12.0087 39.9697H25.5906ZM113.127 84.4034H143.007V91.0563H113.127V84.4034ZM169.591 146.595H146.522C144.581 146.595 143.007 148.169 143.007 150.11C143.007 152.051 144.581 153.625 146.522 153.625H169.591V162.482C169.591 163.027 169.148 163.471 168.603 163.471H91.8411C91.8158 163.47 91.7916 163.467 91.7662 163.467H87.4941C86.9664 163.447 86.5427 163.014 86.5427 162.482V128.477C87.2307 128.594 87.9367 128.659 88.6574 128.659H117.649C118.272 133.856 122.705 137.898 128.067 137.898C133.437 137.898 137.876 133.843 138.489 128.634L167.469 128.653C167.471 128.653 167.474 128.653 167.477 128.653C168.193 128.653 168.899 128.59 169.591 128.472V146.595H169.591ZM124.602 127.402V121.222H131.533V127.402C131.533 129.313 129.978 130.867 128.068 130.867C126.157 130.867 124.602 129.313 124.602 127.402ZM172.969 116.13C172.969 117.598 172.398 118.977 171.359 120.015C170.322 121.052 168.943 121.623 167.477 121.623C167.476 121.623 167.475 121.623 167.473 121.623L138.563 121.604V118.383C138.563 116.072 136.684 114.192 134.372 114.192H121.762C119.451 114.192 117.571 116.071 117.571 118.383V121.628H88.6574C85.6287 121.628 83.1649 119.164 83.1649 116.136V98.0869H172.969V116.13H172.969Z" fill="#232946"/>
</g>
<g filter="url(#filter4_d)">
<path d="M131.785 147.625C131.131 146.971 130.224 146.595 129.299 146.595C128.371 146.595 127.468 146.971 126.811 147.625C126.157 148.279 125.784 149.186 125.784 150.11C125.784 151.035 126.157 151.941 126.811 152.595C127.468 153.249 128.372 153.625 129.299 153.625C130.224 153.625 131.127 153.249 131.785 152.595C132.438 151.941 132.815 151.034 132.815 150.11C132.815 149.186 132.438 148.279 131.785 147.625Z" fill="#232946"/>
</g>
</g>
<defs>
<filter id="filter0_d" x="147.76" y="68.0977" width="15.057" height="15.1339" filterUnits="userSpaceOnUse" color-interpolation-filters="sRGB">
<feFlood flood-opacity="0" result="BackgroundImageFix"/>
<feColorMatrix in="SourceAlpha" type="matrix" values="0 0 0 0 0 0 0 0 0 0 0 0 0 0 0 0 0 0 127 0"/>
<feOffset dy="4"/>
<feGaussianBlur stdDeviation="2"/>
<feColorMatrix type="matrix" values="0 0 0 0 0 0 0 0 0 0 0 0 0 0 0 0 0 0 0.25 0"/>
<feBlend mode="normal" in2="BackgroundImageFix" result="effect1_dropShadow"/>
<feBlend mode="normal" in="SourceGraphic" in2="effect1_dropShadow" result="shape"/>
</filter>
<filter id="filter1_d" x="40.6448" y="76.1592" width="30.6875" height="53.0652" filterUnits="userSpaceOnUse" color-interpolation-filters="sRGB">
<feFlood flood-opacity="0" result="BackgroundImageFix"/>
<feColorMatrix in="SourceAlpha" type="matrix" values="0 0 0 0 0 0 0 0 0 0 0 0 0 0 0 0 0 0 127 0"/>
<feOffset dy="4"/>
<feGaussianBlur stdDeviation="2"/>
<feColorMatrix type="matrix" values="0 0 0 0 0 0 0 0 0 0 0 0 0 0 0 0 0 0 0.25 0"/>
<feBlend mode="normal" in2="BackgroundImageFix" result="effect1_dropShadow"/>
<feBlend mode="normal" in="SourceGraphic" in2="effect1_dropShadow" result="shape"/>
</filter>
<filter id="filter2_d" x="61.7164" y="54.1426" width="48.4648" height="23.821" filterUnits="userSpaceOnUse" color-interpolation-filters="sRGB">
<feFlood flood-opacity="0" result="BackgroundImageFix"/>
<feColorMatrix in="SourceAlpha" type="matrix" values="0 0 0 0 0 0 0 0 0 0 0 0 0 0 0 0 0 0 127 0"/>
<feOffset dy="4"/>
<feGaussianBlur stdDeviation="2"/>
<feColorMatrix type="matrix" values="0 0 0 0 0 0 0 0 0 0 0 0 0 0 0 0 0 0 0.25 0"/>
<feBlend mode="normal" in2="BackgroundImageFix" result="effect1_dropShadow"/>
<feBlend mode="normal" in="SourceGraphic" in2="effect1_dropShadow" result="shape"/>
</filter>
<filter id="filter3_d" x="-4" y="9.49805" width="188" height="169.003" filterUnits="userSpaceOnUse" color-interpolation-filters="sRGB">
<feFlood flood-opacity="0" result="BackgroundImageFix"/>
<feColorMatrix in="SourceAlpha" type="matrix" values="0 0 0 0 0 0 0 0 0 0 0 0 0 0 0 0 0 0 127 0"/>
<feOffset dy="4"/>
<feGaussianBlur stdDeviation="2"/>
<feColorMatrix type="matrix" values="0 0 0 0 0 0 0 0 0 0 0 0 0 0 0 0 0 0 0.25 0"/>
<feBlend mode="normal" in2="BackgroundImageFix" result="effect1_dropShadow"/>
<feBlend mode="normal" in="SourceGraphic" in2="effect1_dropShadow" result="shape"/>
</filter>
<filter id="filter4_d" x="121.784" y="146.595" width="15.0305" height="15.0305" filterUnits="userSpaceOnUse" color-interpolation-filters="sRGB">
<feFlood flood-opacity="0" result="BackgroundImageFix"/>
<feColorMatrix in="SourceAlpha" type="matrix" values="0 0 0 0 0 0 0 0 0 0 0 0 0 0 0 0 0 0 127 0"/>
<feOffset dy="4"/>
<feGaussianBlur stdDeviation="2"/>
<feColorMatrix type="matrix" values="0 0 0 0 0 0 0 0 0 0 0 0 0 0 0 0 0 0 0.25 0"/>
<feBlend mode="normal" in2="BackgroundImageFix" result="effect1_dropShadow"/>
<feBlend mode="normal" in="SourceGraphic" in2="effect1_dropShadow" result="shape"/>
</filter>
<clipPath id="clip0">
<rect width="180" height="180" fill="white"/>
</clipPath>
</defs>
</svg>
