<svg width="48" height="48" viewBox="0 0 48 48" fill="none" xmlns="http://www.w3.org/2000/svg">
<path d="M21.1875 14.0625C21.1875 12.5117 19.9258 11.25 18.375 11.25C16.8242 11.25 15.5625 12.5117 15.5625 14.0625C15.5625 15.6133 16.8242 16.875 18.375 16.875C19.9258 16.875 21.1875 15.6133 21.1875 14.0625ZM18.375 15C17.8581 15 17.4375 14.5794 17.4375 14.0625C17.4375 13.5456 17.8581 13.125 18.375 13.125C18.8919 13.125 19.3125 13.5456 19.3125 14.0625C19.3125 14.5794 18.8919 15 18.375 15Z" fill="#232946"/>
<path d="M13.413 25.2121C13.0469 24.846 12.4533 24.846 12.0871 25.2121L9.00008 28.2992L7.78798 27.0871C7.42188 26.721 6.82826 26.721 6.46207 27.0871C6.09598 27.4532 6.09598 28.0468 6.46207 28.413L8.33707 30.288C8.52017 30.471 8.76017 30.5625 9.00008 30.5625C9.23998 30.5625 9.47998 30.471 9.66298 30.2879L13.413 26.5379C13.7791 26.1718 13.7791 25.5782 13.413 25.2121V25.2121Z" fill="#232946"/>
<path d="M29.625 28.6875H14.625C14.1072 28.6875 13.6875 29.1072 13.6875 29.625C13.6875 30.1428 14.1072 30.5625 14.625 30.5625H29.625C30.1427 30.5625 30.5625 30.1428 30.5625 29.625C30.5625 29.1072 30.1427 28.6875 29.625 28.6875Z" fill="#232946"/>
<path d="M13.413 30.8371C13.0469 30.471 12.4533 30.471 12.0871 30.8371L9.00008 33.9242L7.78798 32.7121C7.42188 32.346 6.82826 32.346 6.46207 32.7121C6.09598 33.0782 6.09598 33.6718 6.46207 34.038L8.33707 35.913C8.52017 36.096 8.76017 36.1875 9.00008 36.1875C9.23998 36.1875 9.47998 36.096 9.66298 35.9129L13.413 32.1629C13.7791 31.7968 13.7791 31.2032 13.413 30.8371V30.8371Z" fill="#232946"/>
<path d="M29.625 34.3125H14.625C14.1072 34.3125 13.6875 34.7322 13.6875 35.25C13.6875 35.7678 14.1072 36.1875 14.625 36.1875H29.625C30.1427 36.1875 30.5625 35.7678 30.5625 35.25C30.5625 34.7322 30.1427 34.3125 29.625 34.3125Z" fill="#232946"/>
<path d="M12.0872 36.4622L9.00008 39.5492L7.78798 38.3371C7.42188 37.9711 6.82826 37.9711 6.46207 38.3371C6.09598 38.7032 6.09598 39.2969 6.46207 39.663L8.33707 41.538C8.52017 41.721 8.76017 41.8125 9.00008 41.8125C9.23998 41.8125 9.47998 41.721 9.66298 41.5379L13.413 37.788C13.7791 37.4219 13.7791 36.8282 13.413 36.4621C13.0469 36.096 12.4533 36.096 12.0872 36.4622Z" fill="#232946"/>
<path d="M30.5625 40.875C30.5625 40.3572 30.1427 39.9375 29.625 39.9375H14.625C14.1072 39.9375 13.6875 40.3572 13.6875 40.875C13.6875 41.3928 14.1072 41.8125 14.625 41.8125H29.625C30.1427 41.8125 30.5625 41.3928 30.5625 40.875Z" fill="#232946"/>
<path d="M18.375 24.375C23.0962 24.375 26.8125 20.5236 26.8125 15.9375C26.8125 11.2851 23.0274 7.5 18.375 7.5C13.7226 7.5 9.9375 11.2851 9.9375 15.9375C9.9375 20.5344 13.6632 24.375 18.375 24.375ZM15.5625 21.8676V21.5625C15.5625 20.0117 16.8242 18.75 18.375 18.75C19.9258 18.75 21.1875 20.0117 21.1875 21.5625V21.8676C20.3126 22.2821 19.3506 22.5 18.375 22.5C17.3994 22.5 16.4374 22.2821 15.5625 21.8676ZM11.8125 15.9375C11.8125 12.3189 14.7564 9.375 18.375 9.375C21.9936 9.375 24.9375 12.3189 24.9375 15.9375C24.9375 17.7151 24.2083 19.4011 22.9675 20.6216C22.5307 18.4863 20.6376 16.875 18.375 16.875C16.1124 16.875 14.2193 18.4863 13.7825 20.6216C12.5417 19.4011 11.8125 17.7151 11.8125 15.9375Z" fill="#232946"/>
<path d="M40.875 6.1875H37.125C36.6073 6.1875 36.1875 6.60722 36.1875 7.125V34.8075C36.1875 37.6942 36.87 40.5856 38.1614 43.1692C38.3202 43.4869 38.6449 43.6875 39 43.6875C39.3551 43.6875 39.6798 43.4868 39.8386 43.1692C41.13 40.5856 41.8125 37.6942 41.8125 34.8075V15.5625H43.6875V20.25C43.6875 20.7678 44.1073 21.1875 44.625 21.1875C45.1427 21.1875 45.5625 20.7678 45.5625 20.25V12.75C45.5625 11.1992 44.3008 9.9375 42.75 9.9375H41.8125V7.125C41.8125 6.60722 41.3927 6.1875 40.875 6.1875V6.1875ZM39.9375 8.0625V9.9375H38.0625V8.0625H39.9375ZM39 40.3398C38.3834 38.5642 38.0625 36.6847 38.0625 34.8075V30.5625H39.9375V34.8075C39.9375 36.6847 39.6166 38.5642 39 40.3398ZM39.9375 28.6875H38.0625V15.5625H39.9375V28.6875ZM43.6875 12.75V13.6875H38.0625V11.8125H42.75C43.2669 11.8125 43.6875 12.2331 43.6875 12.75Z" fill="#232946"/>
<path d="M18.375 48C18.8928 48 19.3125 47.5803 19.3125 47.0625C19.3125 46.5447 18.8928 46.125 18.375 46.125C17.8572 46.125 17.4375 46.5447 17.4375 47.0625C17.4375 47.5803 17.8572 48 18.375 48Z" fill="#232946"/>
<path d="M3.375 0C2.85722 0 2.4375 0.419719 2.4375 0.9375V47.0625C2.4375 47.5803 2.85722 48 3.375 48H14.1562C14.674 48 15.0938 47.5803 15.0938 47.0625C15.0938 46.5447 14.674 46.125 14.1562 46.125H4.3125V1.875H11.8125V2.8125C11.8125 4.36331 13.0742 5.625 14.625 5.625H22.125C23.6758 5.625 24.9375 4.36331 24.9375 2.8125V1.875H32.4375V46.125H22.5938C22.076 46.125 21.6562 46.5447 21.6562 47.0625C21.6562 47.5803 22.076 48 22.5938 48H33.375C33.8927 48 34.3125 47.5803 34.3125 47.0625V0.9375C34.3125 0.419719 33.8927 0 33.375 0H3.375ZM23.0625 2.8125C23.0625 3.32944 22.6419 3.75 22.125 3.75H14.625C14.1081 3.75 13.6875 3.32944 13.6875 2.8125V1.875H23.0625V2.8125Z" fill="#232946"/>
</svg>
