<svg width="80" height="80" viewBox="0 0 80 80" fill="none" xmlns="http://www.w3.org/2000/svg">
<g clip-path="url(#clip0)">
<path d="M36.9143 54.2603C37.5253 53.6494 37.5253 52.6606 36.9143 52.0496C36.3028 51.4405 35.3121 51.4405 34.6999 52.0496C34.0896 52.6606 34.0896 53.6494 34.6999 54.2603C35.3121 54.8694 36.3028 54.8694 36.9143 54.2603Z" fill="#232946"/>
<path d="M29.5029 17.1826C29.5029 26.6571 37.2261 34.3659 46.7192 34.3659C56.2122 34.3659 63.9354 26.6571 63.9354 17.1826C63.9354 7.70813 56.2122 0 46.7192 0C37.2261 0 29.5029 7.70813 29.5029 17.1826ZM60.8055 17.1826C60.8055 24.9347 54.4864 31.2415 46.7192 31.2415C38.9519 31.2415 32.6328 24.9347 32.6328 17.1826C32.6328 9.43116 38.9519 3.12439 46.7192 3.12439C54.4864 3.12439 60.8055 9.43116 60.8055 17.1826Z" fill="#232946"/>
<path d="M18.1057 79.5379C18.7124 80.1483 19.7 80.155 20.3146 79.5507L27.9027 72.0898C29.1918 70.8032 29.5838 68.8983 29.0169 67.2424L30.6492 65.6713C31.5279 64.8242 32.685 64.3572 33.9081 64.3572H54.7147C58.406 64.3572 61.8949 62.9424 64.5398 60.3735C64.6487 60.2679 63.7136 61.3671 78.7344 43.4496C80.9623 40.819 80.629 36.8688 77.9908 34.6429C75.3691 32.4377 71.4417 32.7544 69.2077 35.3399L59.9722 44.8138C58.806 43.3813 57.0276 42.4883 55.1061 42.4883H37.6532C35.1697 41.4513 32.5346 40.9264 29.8156 40.9264C22.2789 40.9264 15.6981 44.4006 12.1664 50.9142C10.6785 50.6329 9.10928 51.0821 7.98037 52.2088L0.534798 59.6618C-0.0730787 60.2703 -0.0743017 61.2548 0.532352 61.8652L18.1057 79.5379ZM29.815 44.0502C32.2123 44.0502 34.53 44.5318 36.7053 45.4815C36.9034 45.5682 37.1169 45.6127 37.3327 45.6127H55.1061C56.8031 45.6127 58.2366 46.9939 58.2366 48.7365C58.2366 50.4595 56.8325 51.8609 55.1061 51.8609H42.3364C41.4723 51.8609 40.7715 52.5604 40.7715 53.4228C40.7715 54.2858 41.4723 54.9847 42.3364 54.9847H55.1061C58.5583 54.9847 61.3665 52.1819 61.3665 48.7365C61.3665 48.4618 61.3469 48.1896 61.3115 47.9198C70.2455 38.7542 71.5053 37.4664 71.5591 37.4023C72.6746 36.0882 74.6548 35.9216 75.9721 37.03C77.2905 38.1426 77.4575 40.1177 76.339 41.4391L62.3009 58.1884C60.251 60.1525 57.5596 61.2335 54.7147 61.2335H33.9081C31.8692 61.2335 29.9391 62.0117 28.4751 63.4234L27.145 64.7045L14.8835 52.4676C17.7492 47.102 23.1265 44.0502 29.815 44.0502ZM10.1954 54.4164C10.7115 53.9013 11.5041 53.8085 12.1334 54.1967C12.4043 54.3615 11.6264 53.6547 25.6895 67.6708C26.3151 68.2952 26.2815 69.2901 25.6981 69.8724L19.2291 76.2329L3.8506 60.7671L10.1954 54.4164Z" fill="#232946"/>
<path d="M44.8409 7.81055V9.64099C43.0191 10.2855 41.7104 12.022 41.7104 14.0587C41.7104 16.6423 43.8166 18.745 46.4058 18.745C47.2687 18.745 47.9708 19.4457 47.9708 20.3069C47.9708 21.1681 47.2687 21.8688 46.4058 21.8688C45.7374 21.8688 45.0152 21.4495 44.3737 20.6871C43.8172 20.0267 42.8301 19.9419 42.1684 20.4967C41.5068 21.0521 41.4211 22.0372 41.9776 22.6976C42.8142 23.6907 43.7982 24.3828 44.8409 24.7319V26.5551C44.8409 27.4181 45.5417 28.117 46.4058 28.117C47.27 28.117 47.9708 27.4181 47.9708 26.5551V24.7246C49.7926 24.0795 51.1013 22.343 51.1013 20.3069C51.1013 17.7227 48.9951 15.6206 46.4058 15.6206C45.543 15.6206 44.8409 14.9199 44.8409 14.0587C44.8409 13.1975 45.543 12.4962 46.4058 12.4962C46.9605 12.4962 47.5458 12.7788 48.0986 13.3129C48.7199 13.9128 49.7106 13.8964 50.3118 13.2769C50.9129 12.6567 50.8964 11.668 50.2757 11.068C49.4813 10.3008 48.6863 9.86682 47.9708 9.63001V7.81055C47.9708 6.94751 47.27 6.24805 46.4058 6.24805C45.5417 6.24805 44.8409 6.94751 44.8409 7.81055Z" fill="#232946"/>
</g>
<defs>
<clipPath id="clip0">
<rect width="80" height="80" fill="white"/>
</clipPath>
</defs>
</svg>
