<svg width="180" height="180" viewBox="0 0 180 180" fill="none" xmlns="http://www.w3.org/2000/svg">
<path d="M145.688 125.09H145.685C145.424 124.74 145.085 124.457 144.694 124.261C144.304 124.066 143.874 123.964 143.438 123.965H127.469C128.725 121.333 129.376 118.453 129.375 115.537V115.527V103.21C129.375 99.1671 131.329 95.237 134.736 92.428C144.689 84.2229 149.874 72.0986 148.962 59.1643C147.692 41.1723 133.84 26.0559 116.026 23.2209C109.578 22.1732 102.971 22.7455 96.7987 24.8863C90.6268 27.0271 85.0841 30.6692 80.6696 35.4846C76.2552 40.3001 73.1076 46.1377 71.5101 52.4721C69.9126 58.8065 69.9155 65.4387 71.5185 71.7716L61.5236 76.0547L45.4614 73.3779C45.3086 73.3523 45.154 73.3395 44.9991 73.3396H28.1251C25.8881 73.3421 23.7435 74.2319 22.1617 75.8137C20.5799 77.3955 19.6901 79.5401 19.6876 81.7771V98.5428L14.0707 171.562C14.0411 171.949 14.0917 172.337 14.2192 172.703C14.3467 173.069 14.5485 173.404 14.8118 173.688C15.0751 173.973 15.3943 174.199 15.7493 174.355C16.1044 174.51 16.4877 174.59 16.8751 174.59H25.3126C25.9927 174.59 26.6498 174.343 27.1622 173.896C27.6746 173.449 28.0076 172.831 28.0995 172.157L33.6724 131.286L38.9424 172.137C39.0298 172.815 39.3611 173.438 39.8745 173.89C40.3878 174.341 41.048 174.59 41.7317 174.59H50.6251C51.0126 174.59 51.396 174.51 51.7511 174.355C52.1062 174.2 52.4255 173.973 52.6888 173.689C52.9521 173.405 53.1538 173.069 53.2813 172.703C53.4088 172.337 53.4592 171.949 53.4295 171.562L47.8126 98.5428V92.6537L65.0856 90.1861C65.688 90.1003 66.2462 89.8212 66.6764 89.3909L75.1333 80.9337C77.5513 85.3373 80.7828 89.2423 84.6564 92.4414C88.0521 95.2409 90.0001 99.1647 90.0001 103.207V115.527V115.537C89.9993 118.453 90.6505 121.333 91.9059 123.965H75.9376C75.5013 123.964 75.071 124.066 74.6808 124.261C74.2906 124.457 73.9514 124.74 73.6901 125.09H73.6876L56.8126 147.59C56.4992 148.007 56.3084 148.504 56.2615 149.025C56.2146 149.545 56.3135 150.068 56.5471 150.535C56.7806 151.002 57.1397 151.395 57.584 151.67C58.0283 151.944 58.5403 152.09 59.0626 152.09H73.1251V171.777C73.1251 172.523 73.4214 173.238 73.9489 173.766C74.4763 174.293 75.1917 174.59 75.9376 174.59H143.438C144.184 174.59 144.899 174.293 145.426 173.766C145.954 173.238 146.25 172.523 146.25 171.777V152.09H160.313C160.835 152.09 161.347 151.944 161.791 151.67C162.236 151.395 162.595 151.002 162.828 150.535C163.062 150.068 163.161 149.545 163.114 149.025C163.067 148.504 162.876 148.007 162.563 147.59L145.688 125.09ZM138.887 129.59L130.449 146.465H88.9257L80.4882 129.59H138.887ZM95.6251 107.09H123.75V112.725H95.6251V107.09ZM44.2045 168.965L36.5405 109.542C36.4532 108.866 36.1232 108.244 35.6119 107.793C35.1007 107.342 34.4429 107.092 33.761 107.09H33.7501C33.07 107.09 32.4129 107.336 31.9005 107.783C31.3882 108.23 31.0552 108.848 30.9633 109.522L22.8577 168.965H19.9123L25.1045 101.465H42.3958L47.588 168.965H44.2045ZM63.3619 84.7503L44.6022 87.4302C43.932 87.526 43.3188 87.8604 42.8753 88.3718C42.4317 88.8833 42.1876 89.5376 42.1876 90.2146V95.8396H25.3126V81.7771C25.3135 81.0314 25.6101 80.3166 26.1373 79.7893C26.6646 79.262 27.3795 78.9654 28.1251 78.9646H44.7674L61.4128 81.7388C61.9435 81.827 62.4883 81.7614 62.9829 81.5496L69.2474 78.8651L63.3619 84.7503ZM88.2349 88.1014C84.4823 85.0035 81.4373 81.1373 79.3052 76.7631L83.5525 72.5159C84.0146 72.0537 84.3014 71.445 84.3634 70.7943C84.4255 70.1437 84.259 69.4917 83.8926 68.9505C83.5262 68.4092 82.9827 68.0125 82.3555 67.8285C81.7284 67.6445 81.0567 67.6846 80.4559 67.9421L76.7645 69.5241C75.5491 64.133 75.6755 58.5259 77.1328 53.195C78.5901 47.8642 81.3337 42.9725 85.1227 38.9495C88.9117 34.9264 93.6303 31.8949 98.8644 30.1211C104.098 28.3473 109.688 27.8854 115.142 28.7759C130.4 31.2041 142.264 44.1508 143.35 59.5601C143.771 64.9462 142.881 70.3539 140.758 75.3216C138.635 80.2894 135.341 84.6695 131.158 88.088C126.931 91.5734 124.322 96.3733 123.834 101.465H112.5V74.8629L127.821 67.2027C128.288 66.9691 128.68 66.6101 128.955 66.1658C129.23 65.7215 129.375 65.2096 129.375 64.6873V56.2498C129.375 55.5039 129.079 54.7885 128.551 54.2611C128.024 53.7336 127.309 53.4373 126.563 53.4373H90.0001C89.2542 53.4373 88.5388 53.7336 88.0114 54.2611C87.4839 54.7885 87.1876 55.5039 87.1876 56.2498V64.6873C87.1876 65.1503 87.3019 65.6061 87.5204 66.0143C87.7388 66.4225 88.0547 66.7705 88.4399 67.0273L96.8774 72.6523L99.9979 67.9723L92.8126 63.1823V59.0623H123.75V62.9492L108.43 70.6094C107.963 70.843 107.57 71.202 107.295 71.6463C107.021 72.0906 106.875 72.6025 106.875 73.1248V101.465H95.5422C95.0556 96.3733 92.453 91.5783 88.2349 88.1014V88.1014ZM95.9095 118.35H123.466C123.047 120.389 122.175 122.308 120.914 123.965H98.4612C97.2007 122.308 96.3287 120.389 95.9095 118.35V118.35ZM64.6876 146.465L73.1251 135.215V146.465H64.6876ZM78.7501 168.965V138.691L84.6722 150.535C84.9058 151.002 85.2648 151.395 85.7091 151.67C86.1534 151.944 86.6653 152.09 87.1876 152.09H132.188C132.71 152.09 133.222 151.944 133.666 151.669C134.11 151.395 134.47 151.002 134.703 150.535L140.625 138.691V168.965L78.7501 168.965ZM146.25 146.465V135.215L154.688 146.465H146.25Z" fill="#232946"/>
<path d="M33.75 70.5273C35.975 70.5273 38.1501 69.8675 40.0002 68.6314C41.8502 67.3952 43.2922 65.6382 44.1436 63.5825C44.9951 61.5269 45.2179 59.2649 44.7838 57.0826C44.3497 54.9003 43.2783 52.8957 41.705 51.3224C40.1316 49.7491 38.1271 48.6776 35.9448 48.2435C33.7625 47.8094 31.5005 48.0322 29.4448 48.8837C27.3891 49.7352 25.6321 51.1771 24.396 53.0272C23.1598 54.8772 22.5 57.0523 22.5 59.2773C22.5033 62.26 23.6897 65.1195 25.7987 67.2286C27.9078 69.3377 30.7673 70.524 33.75 70.5273V70.5273ZM33.75 53.6523C34.8625 53.6523 35.9501 53.9822 36.8751 54.6003C37.8001 55.2184 38.5211 56.0969 38.9468 57.1248C39.3726 58.1526 39.484 59.2836 39.2669 60.3747C39.0499 61.4659 38.5141 62.4682 37.7275 63.2548C36.9408 64.0415 35.9385 64.5772 34.8474 64.7943C33.7562 65.0113 32.6252 64.8999 31.5974 64.4742C30.5696 64.0484 29.6911 63.3275 29.073 62.4024C28.4549 61.4774 28.125 60.3899 28.125 59.2773C28.1268 57.786 28.72 56.3563 29.7745 55.3018C30.829 54.2473 32.2587 53.6541 33.75 53.6523V53.6523Z" fill="#232946"/>
<path d="M106.87 16.8652L106.903 5.61524L112.528 5.63211L112.495 16.8821L106.87 16.8652Z" fill="#232946"/>
<path d="M141.477 28.8691L149.453 20.9379L153.418 24.926L145.442 32.8573L141.477 28.8691Z" fill="#232946"/>
<path d="M157.483 67.4961L157.5 61.8711L168.75 61.9048L168.733 67.5298L157.483 67.4961Z" fill="#232946"/>
<path d="M141.468 100.441L145.456 96.4758L153.387 104.452L149.399 108.418L141.468 100.441Z" fill="#232946"/>
<path d="M65.905 104.401L73.8813 96.4701L77.8469 100.458L69.8707 108.389L65.905 104.401Z" fill="#232946"/>
<path d="M65.9358 24.8711L69.9239 20.9055L77.8552 28.8817L73.867 32.8473L65.9358 24.8711Z" fill="#232946"/>
<path d="M50.6133 67.4609L50.6302 61.8359L61.8802 61.8697L61.8633 67.4947L50.6133 67.4609Z" fill="#232946"/>
</svg>
