<svg width="33" height="27" viewBox="0 0 33 27" fill="none" xmlns="http://www.w3.org/2000/svg">
<g clip-path="url(#clip0)">
<path d="M22.5176 20.4927C28.1888 20.4927 32.7862 15.9053 32.7862 10.2464C32.7862 4.58745 28.1888 0 22.5176 0C16.8464 0 12.249 4.58745 12.249 10.2464C12.249 15.9053 16.8464 20.4927 22.5176 20.4927Z" fill="#F99600"/>
<path d="M10.9659 20.4927C16.637 20.4927 21.2345 15.9053 21.2345 10.2464C21.2345 4.58745 16.637 0 10.9659 0C5.29467 0 0.697266 4.58745 0.697266 10.2464C0.697266 15.9053 5.29467 20.4927 10.9659 20.4927Z" fill="#EC000A"/>
<path fill-rule="evenodd" clip-rule="evenodd" d="M16.7415 18.7192C14.0296 16.8749 12.249 13.7681 12.249 10.2463C12.249 6.72454 14.0296 3.61775 16.7415 1.77344C19.4534 3.61775 21.234 6.72454 21.234 10.2463C21.234 13.7681 19.4534 16.8749 16.7415 18.7192Z" fill="#FF5300"/>
<path d="M3.13984 22.2137L3.15722 22.6311C3.43312 22.3065 3.80523 22.1442 4.27355 22.1442C4.79984 22.1442 5.15804 22.3459 5.34815 22.7493C5.47334 22.5685 5.63563 22.4224 5.83502 22.3111C6.03672 22.1998 6.27436 22.1442 6.54794 22.1442C7.3733 22.1442 7.79294 22.5812 7.80685 23.4553V25.9766H7.16349V23.4935C7.16349 23.2246 7.10205 23.024 6.97917 22.8919C6.85629 22.7574 6.64995 22.6902 6.36015 22.6902C6.12135 22.6902 5.92312 22.762 5.76547 22.9058C5.60781 23.0472 5.51624 23.2385 5.49073 23.4796V25.9766H4.84389V23.5109C4.84389 22.9638 4.57611 22.6902 4.04055 22.6902C3.61859 22.6902 3.32995 22.8699 3.17461 23.2292V25.9766H2.53125V22.2137H3.13984ZM11.1037 25.9766C11.0666 25.9024 11.0364 25.7702 11.0133 25.5801C10.7142 25.8908 10.3571 26.0461 9.94213 26.0461C9.57118 26.0461 9.26631 25.9418 9.02751 25.7331C8.79103 25.5221 8.67279 25.2555 8.67279 24.9333C8.67279 24.5414 8.82117 24.2377 9.11793 24.0221C9.41701 23.8042 9.83665 23.6952 10.3768 23.6952H11.0028V23.3996C11.0028 23.1747 10.9356 22.9962 10.8011 22.8641C10.6666 22.7296 10.4684 22.6624 10.2064 22.6624C9.97691 22.6624 9.78448 22.7203 9.62914 22.8362C9.47381 22.9522 9.39614 23.0924 9.39614 23.257H8.7493C8.7493 23.0692 8.81537 22.8884 8.94752 22.7145C9.08199 22.5383 9.26283 22.3992 9.49004 22.2972C9.71956 22.1952 9.97111 22.1442 10.2447 22.1442C10.6782 22.1442 11.0179 22.2532 11.2636 22.4711C11.5094 22.6867 11.6369 22.9846 11.6462 23.3648V25.0967C11.6462 25.4422 11.6902 25.7169 11.7783 25.9209V25.9766H11.1037ZM10.036 25.4862C10.2377 25.4862 10.429 25.434 10.6098 25.3297C10.7907 25.2254 10.9217 25.0898 11.0028 24.9228V24.1508H10.4986C9.71029 24.1508 9.31616 24.3815 9.31616 24.8428C9.31616 25.0446 9.38339 25.2022 9.51786 25.3158C9.65233 25.4294 9.82505 25.4862 10.036 25.4862ZM14.8456 24.9785C14.8456 24.8046 14.7796 24.6701 14.6474 24.5751C14.5176 24.4777 14.2892 24.3942 13.9623 24.3247C13.6377 24.2551 13.3792 24.1717 13.1868 24.0743C12.9967 23.9769 12.8553 23.861 12.7625 23.7265C12.6721 23.592 12.6269 23.4321 12.6269 23.2466C12.6269 22.9382 12.7567 22.6774 13.0164 22.4641C13.2784 22.2508 13.6122 22.1442 14.0179 22.1442C14.4445 22.1442 14.79 22.2543 15.0543 22.4746C15.3209 22.6948 15.4542 22.9765 15.4542 23.3196H14.8074C14.8074 23.1434 14.732 22.9916 14.5813 22.8641C14.4329 22.7365 14.2452 22.6728 14.0179 22.6728C13.7838 22.6728 13.6006 22.7238 13.4685 22.8258C13.3363 22.9278 13.2703 23.0611 13.2703 23.2257C13.2703 23.3811 13.3317 23.4982 13.4546 23.577C13.5774 23.6558 13.7989 23.7312 14.1188 23.803C14.4411 23.8749 14.7019 23.9607 14.9013 24.0604C15.1007 24.1601 15.2479 24.2806 15.3429 24.422C15.4403 24.5612 15.489 24.7316 15.489 24.9333C15.489 25.2694 15.3545 25.5395 15.0856 25.7436C14.8167 25.9453 14.4677 26.0461 14.0388 26.0461C13.7374 26.0461 13.4708 25.9928 13.239 25.8861C13.0071 25.7795 12.8251 25.6311 12.693 25.441C12.5631 25.2486 12.4982 25.0411 12.4982 24.8185H13.1416C13.1532 25.0341 13.239 25.2057 13.3989 25.3332C13.5612 25.4584 13.7745 25.521 14.0388 25.521C14.2823 25.521 14.477 25.4723 14.6231 25.3749C14.7714 25.2752 14.8456 25.1431 14.8456 24.9785ZM17.2 21.3026V22.2137H17.9025V22.711H17.2V25.0446C17.2 25.1952 17.2313 25.3089 17.2939 25.3854C17.3565 25.4596 17.4631 25.4966 17.6138 25.4966C17.688 25.4966 17.79 25.4827 17.9199 25.4549V25.9766C17.7506 26.0229 17.586 26.0461 17.4261 26.0461C17.1386 26.0461 16.9218 25.9592 16.7757 25.7853C16.6297 25.6114 16.5566 25.3645 16.5566 25.0446V22.711H15.8715V22.2137H16.5566V21.3026H17.2ZM20.2186 26.0461C19.7086 26.0461 19.2936 25.8792 18.9736 25.5453C18.6537 25.2092 18.4937 24.7605 18.4937 24.1995V24.0812C18.4937 23.708 18.5644 23.3753 18.7058 23.0832C18.8496 22.7887 19.049 22.5592 19.304 22.3946C19.5613 22.2276 19.8395 22.1442 20.1386 22.1442C20.6278 22.1442 21.008 22.3053 21.2793 22.6276C21.5506 22.9498 21.6862 23.4112 21.6862 24.0117V24.2795H19.1371C19.1463 24.6504 19.2541 24.9507 19.4605 25.1802C19.6691 25.4074 19.9334 25.521 20.2534 25.521C20.4806 25.521 20.673 25.4746 20.8307 25.3819C20.9883 25.2891 21.1263 25.1663 21.2445 25.0133L21.6375 25.3193C21.3222 25.8038 20.8492 26.0461 20.2186 26.0461ZM20.1386 22.6728C19.879 22.6728 19.661 22.7678 19.4848 22.958C19.3086 23.1457 19.1997 23.4101 19.1579 23.7509H21.0428V23.7022C21.0243 23.3753 20.9362 23.1226 20.7785 22.944C20.6209 22.7632 20.4076 22.6728 20.1386 22.6728ZM24.2527 22.791C24.1553 22.7748 24.0498 22.7667 23.9362 22.7667C23.5143 22.7667 23.2279 22.9464 23.0772 23.3057V25.9766H22.4339V22.2137H23.0599L23.0703 22.6484C23.2813 22.3123 23.5803 22.1442 23.9675 22.1442C24.0927 22.1442 24.1878 22.1604 24.2527 22.1929V22.791ZM26.2871 25.521C26.5166 25.521 26.7172 25.4514 26.8888 25.3123C27.0603 25.1732 27.1554 24.9993 27.1739 24.7907H27.7825C27.7709 25.0063 27.6967 25.2115 27.5599 25.4062C27.4232 25.601 27.24 25.7563 27.0105 25.8722C26.7833 25.9882 26.5422 26.0461 26.2871 26.0461C25.7747 26.0461 25.3667 25.8757 25.063 25.5349C24.7616 25.1918 24.6109 24.7234 24.6109 24.1299V24.0221C24.6109 23.6558 24.6781 23.3301 24.8126 23.0449C24.9471 22.7597 25.1395 22.5383 25.3899 22.3807C25.6426 22.223 25.9405 22.1442 26.2836 22.1442C26.7056 22.1442 27.0557 22.2705 27.3339 22.5232C27.6144 22.776 27.764 23.104 27.7825 23.5074H27.1739C27.1554 23.264 27.0626 23.0646 26.8957 22.9093C26.7311 22.7516 26.5271 22.6728 26.2836 22.6728C25.9567 22.6728 25.7029 22.791 25.522 23.0275C25.3435 23.2617 25.2543 23.6013 25.2543 24.0465V24.1682C25.2543 24.6017 25.3435 24.9356 25.522 25.1697C25.7006 25.4039 25.9556 25.521 26.2871 25.521ZM30.8289 25.9766C30.7918 25.9024 30.7617 25.7702 30.7385 25.5801C30.4394 25.8908 30.0824 26.0461 29.6674 26.0461C29.2965 26.0461 28.9916 25.9418 28.7528 25.7331C28.5163 25.5221 28.3981 25.2555 28.3981 24.9333C28.3981 24.5414 28.5464 24.2377 28.8432 24.0221C29.1423 23.8042 29.5619 23.6952 30.1021 23.6952H30.7281V23.3996C30.7281 23.1747 30.6609 22.9962 30.5264 22.8641C30.3919 22.7296 30.1937 22.6624 29.9317 22.6624C29.7022 22.6624 29.5098 22.7203 29.3544 22.8362C29.1991 22.9522 29.1214 23.0924 29.1214 23.257H28.4746C28.4746 23.0692 28.5406 22.8884 28.6728 22.7145C28.8073 22.5383 28.9881 22.3992 29.2153 22.2972C29.4448 22.1952 29.6964 22.1442 29.97 22.1442C30.4035 22.1442 30.7432 22.2532 30.9889 22.4711C31.2347 22.6867 31.3622 22.9846 31.3715 23.3648V25.0967C31.3715 25.4422 31.4155 25.7169 31.5036 25.9209V25.9766H30.8289ZM29.7613 25.4862C29.963 25.4862 30.1543 25.434 30.3351 25.3297C30.516 25.2254 30.6469 25.0898 30.7281 24.9228V24.1508H30.2238C29.4356 24.1508 29.0414 24.3815 29.0414 24.8428C29.0414 25.0446 29.1087 25.2022 29.2431 25.3158C29.3776 25.4294 29.5503 25.4862 29.7613 25.4862ZM4.35354 30.791C4.25616 30.7748 4.15068 30.7667 4.03707 30.7667C3.61512 30.7667 3.32879 30.9464 3.17809 31.3057V33.9766H2.53472V30.2137H3.1607L3.17113 30.6484C3.38211 30.3123 3.68119 30.1442 4.06837 30.1442C4.19357 30.1442 4.28862 30.1604 4.35354 30.1929V30.791ZM4.72217 32.0639C4.72217 31.4866 4.85896 31.0229 5.13253 30.6728C5.40611 30.3204 5.76431 30.1442 6.20713 30.1442C6.64763 30.1442 6.99656 30.2949 7.2539 30.5963V28.6349H7.89727V33.9766H7.30607L7.27477 33.5732C7.01742 33.8885 6.65923 34.0461 6.20017 34.0461C5.76431 34.0461 5.40843 33.8676 5.13253 33.5106C4.85896 33.1535 4.72217 32.6875 4.72217 32.1125V32.0639ZM5.36554 32.1369C5.36554 32.5635 5.45364 32.8973 5.62984 33.1384C5.80604 33.3796 6.04948 33.5001 6.36015 33.5001C6.76819 33.5001 7.06611 33.317 7.2539 32.9507V31.2223C7.06147 30.8675 6.76587 30.6902 6.3671 30.6902C6.05179 30.6902 5.80604 30.8119 5.62984 31.0553C5.45364 31.2988 5.36554 31.6593 5.36554 32.1369Z" fill="white"/>
</g>
<defs>
<clipPath id="clip0">
<rect width="33" height="27" fill="white"/>
</clipPath>
</defs>
</svg>
