<svg width="180" height="180" viewBox="0 0 180 180" fill="none" xmlns="http://www.w3.org/2000/svg">
<path d="M127.804 66.3646C130.66 66.3599 133.45 65.5089 135.822 63.9191C138.194 62.3293 140.041 60.0721 141.131 57.4326C142.22 54.7932 142.503 51.89 141.943 49.09C141.383 46.29 140.006 43.7188 137.985 41.7013C135.964 39.6838 133.391 38.3107 130.59 37.7553C127.789 37.1999 124.886 37.4873 122.249 38.5811C119.611 39.6749 117.357 41.5261 115.771 43.9006C114.185 46.2752 113.338 49.0666 113.338 51.922C113.346 55.7542 114.873 59.427 117.585 62.1345C120.297 64.8421 123.972 66.3634 127.804 66.3646V66.3646ZM127.804 41.6982C129.826 41.7029 131.8 42.3065 133.478 43.4327C135.156 44.5589 136.463 46.1573 137.233 48.0258C138.003 49.8944 138.203 51.9493 137.805 53.931C137.408 55.9127 136.433 57.7322 135.002 59.1596C133.571 60.5871 131.749 61.5585 129.767 61.9511C127.784 62.3436 125.73 62.1398 123.863 61.3653C121.996 60.5908 120.401 59.2804 119.279 57.5996C118.156 55.9188 117.557 53.9431 117.557 51.922C117.563 49.2083 118.646 46.6079 120.567 44.6913C122.488 42.7746 125.091 41.6982 127.804 41.6982V41.6982Z" fill="#232946"/>
<path d="M162.718 12.3047H17.2821C13.6353 12.3059 10.1378 13.7536 7.55701 16.3302C4.97621 18.9068 3.52279 22.4018 3.51562 26.0487V120.602C3.52279 124.249 4.97621 127.744 7.55701 130.32C10.1378 132.897 13.6353 134.345 17.2821 134.346H65.5907V163.477H54.1719C53.6125 163.477 53.0759 163.699 52.6804 164.094C52.2848 164.49 52.0625 165.026 52.0625 165.586C52.0625 166.145 52.2848 166.682 52.6804 167.077C53.0759 167.473 53.6125 167.695 54.1719 167.695H127.926C128.485 167.695 129.022 167.473 129.417 167.077C129.813 166.682 130.035 166.145 130.035 165.586C130.035 165.026 129.813 164.49 129.417 164.094C129.022 163.699 128.485 163.477 127.926 163.477H114.409V134.346H162.718C166.365 134.345 169.862 132.897 172.443 130.32C175.024 127.744 176.477 124.249 176.484 120.602V26.0487C176.477 22.4018 175.024 18.9068 172.443 16.3302C169.862 13.7536 166.365 12.3059 162.718 12.3047V12.3047ZM17.2821 16.5234H162.718C165.246 16.5233 167.671 17.5261 169.461 19.3118C171.251 21.0975 172.26 23.5203 172.266 26.0487V107.87H157.613L150.757 81.9731C149.928 78.5201 147.963 75.4459 145.176 73.2442C142.39 71.0425 138.945 69.8411 135.394 69.833H105.785L84.7002 61.7966C84.6805 61.7892 84.6608 61.7818 84.6408 61.7752C83.602 61.4172 82.4962 61.297 81.4048 61.4234C80.3134 61.5498 79.2643 61.9195 78.3348 62.5054C77.9747 62.7293 77.6337 62.9826 77.3153 63.2626L64.3563 49.101C63.9771 48.6947 63.4528 48.4545 62.8974 48.4326C62.3421 48.4107 61.8005 48.6089 61.3905 48.9841C60.9804 49.3593 60.735 49.8811 60.7076 50.4362C60.6801 50.9913 60.8729 51.5348 61.2439 51.9486L75.0234 67.0078C74.9495 67.2988 74.8935 67.5941 74.8557 67.892C74.8557 67.9057 74.8522 67.9194 74.8508 67.9328C74.6389 69.6787 75.0572 71.4429 76.0304 72.9078C77.0036 74.3728 78.4678 75.4421 80.1594 75.9234L100.1 83.1034C102.696 84.0399 105.409 84.6126 108.162 84.8053L108.166 107.871H7.73438V26.0487C7.74024 23.5203 8.74876 21.0975 10.5387 19.3118C12.3286 17.5261 14.7538 16.5233 17.2821 16.5234V16.5234ZM147.721 107.87L144.63 95.5737C144.437 94.8049 143.969 94.1333 143.315 93.6853C142.661 93.2373 141.866 93.0438 141.079 93.1412C140.293 93.2385 139.569 93.6201 139.044 94.2141C138.519 94.808 138.229 95.5734 138.229 96.3661V107.87H112.384L112.379 82.768C112.379 82.2086 112.157 81.672 111.762 81.2765C111.366 80.8809 110.829 80.6586 110.27 80.6586C107.289 80.66 104.331 80.1436 101.527 79.1325L81.5066 71.9234C81.448 71.9023 81.3884 71.8837 81.3277 71.8678C80.5897 71.6655 79.9506 71.2013 79.53 70.562C79.1095 69.9228 78.9361 69.1522 79.0425 68.3944C79.0883 68.0498 79.1917 67.7154 79.3484 67.4051L79.3561 67.3879C79.6315 66.8522 80.0485 66.4024 80.5616 66.0871C80.9539 65.8366 81.3968 65.6765 81.8586 65.6182C82.3203 65.5599 82.7892 65.6049 83.2314 65.7499L104.645 73.9118C104.885 74.0032 105.14 74.05 105.397 74.05H135.395C138.004 74.0599 140.535 74.9475 142.579 76.5699C144.623 78.1923 146.062 80.4552 146.664 82.9944C146.667 83.0067 146.67 83.0197 146.674 83.0324L153.248 107.868L147.721 107.87ZM143.371 107.87H142.448V104.197L143.371 107.87ZM110.191 163.477H69.8094V134.346H110.191V163.477ZM162.718 130.127H17.2821C14.7538 130.127 12.3286 129.124 10.5387 127.339C8.74876 125.553 7.74024 123.13 7.73438 120.602V112.088H172.266V120.602C172.26 123.13 171.251 125.553 169.461 127.339C167.671 129.124 165.246 130.127 162.718 130.127V130.127Z" fill="#232946"/>
<path d="M64.8901 36.7412H94.3792C94.9386 36.7412 95.4752 36.519 95.8708 36.1234C96.2663 35.7278 96.4886 35.1913 96.4886 34.6318C96.4886 34.0724 96.2663 33.5359 95.8708 33.1403C95.4752 32.7447 94.9386 32.5225 94.3792 32.5225H64.8901C64.3307 32.5225 63.7942 32.7447 63.3986 33.1403C63.003 33.5359 62.7808 34.0724 62.7808 34.6318C62.7808 35.1913 63.003 35.7278 63.3986 36.1234C63.7942 36.519 64.3307 36.7412 64.8901 36.7412V36.7412Z" fill="#232946"/>
<path d="M57.3398 36.7412H57.4513C58.0107 36.7412 58.5473 36.519 58.9428 36.1234C59.3384 35.7278 59.5607 35.1913 59.5607 34.6318C59.5607 34.0724 59.3384 33.5359 58.9428 33.1403C58.5473 32.7447 58.0107 32.5225 57.4513 32.5225H57.3398C56.7804 32.5225 56.2439 32.7447 55.8483 33.1403C55.4527 33.5359 55.2305 34.0724 55.2305 34.6318C55.2305 35.1913 55.4527 35.7278 55.8483 36.1234C56.2439 36.519 56.7804 36.7412 57.3398 36.7412V36.7412Z" fill="#232946"/>
<path d="M44.7566 36.7412H49.6785C50.2379 36.7412 50.7744 36.519 51.17 36.1234C51.5656 35.7278 51.7878 35.1913 51.7878 34.6318C51.7878 34.0724 51.5656 33.5359 51.17 33.1403C50.7744 32.7447 50.2379 32.5225 49.6785 32.5225H44.7566C44.1972 32.5225 43.6606 32.7447 43.265 33.1403C42.8695 33.5359 42.6472 34.0724 42.6472 34.6318C42.6472 35.1913 42.8695 35.7278 43.265 36.1234C43.6606 36.519 44.1972 36.7412 44.7566 36.7412V36.7412Z" fill="#232946"/>
<path d="M22.6606 36.7412H36.3593C36.9187 36.7412 37.4552 36.519 37.8508 36.1234C38.2464 35.7278 38.4687 35.1913 38.4687 34.6318C38.4687 34.0724 38.2464 33.5359 37.8508 33.1403C37.4552 32.7447 36.9187 32.5225 36.3593 32.5225H22.6606C22.3836 32.5225 22.1093 32.577 21.8534 32.683C21.5975 32.789 21.365 32.9444 21.1691 33.1403C20.9732 33.3362 20.8178 33.5687 20.7118 33.8246C20.6058 34.0805 20.5513 34.3548 20.5513 34.6318C20.5513 34.9088 20.6058 35.1831 20.7118 35.4391C20.8178 35.695 20.9732 35.9275 21.1691 36.1234C21.365 36.3193 21.5975 36.4746 21.8534 36.5806C22.1093 36.6866 22.3836 36.7412 22.6606 36.7412V36.7412Z" fill="#232946"/>
<path d="M94.3794 51.4795H94.3555C93.7939 51.4827 93.2565 51.7084 92.8611 52.1071C92.4657 52.5059 92.2445 53.0452 92.2461 53.6068C92.2477 54.1683 92.4719 54.7064 92.8695 55.1029C93.2672 55.4994 93.8058 55.7221 94.3674 55.7221C94.929 55.7221 95.4676 55.4994 95.8653 55.1029C96.263 54.7064 96.4871 54.1683 96.4887 53.6068C96.4903 53.0452 96.2692 52.5059 95.8737 52.1071C95.4783 51.7084 94.9409 51.4827 94.3794 51.4795V51.4795Z" fill="#232946"/>
<path d="M86.3355 51.4795H75.8899C75.3305 51.4795 74.7939 51.7017 74.3983 52.0973C74.0028 52.4929 73.7805 53.0294 73.7805 53.5889C73.7805 54.1483 74.0028 54.6848 74.3983 55.0804C74.7939 55.476 75.3305 55.6982 75.8899 55.6982H86.3355C86.895 55.6982 87.4315 55.476 87.8271 55.0804C88.2227 54.6848 88.4449 54.1483 88.4449 53.5889C88.4449 53.0294 88.2227 52.4929 87.8271 52.0973C87.4315 51.7017 86.895 51.4795 86.3355 51.4795Z" fill="#232946"/>
<path d="M22.6606 55.6982H54.0991C54.6586 55.6982 55.1951 55.476 55.5907 55.0804C55.9863 54.6848 56.2085 54.1483 56.2085 53.5889C56.2085 53.0294 55.9863 52.4929 55.5907 52.0973C55.1951 51.7017 54.6586 51.4795 54.0991 51.4795H22.6606C22.1012 51.4795 21.5647 51.7017 21.1691 52.0973C20.7735 52.4929 20.5513 53.0294 20.5513 53.5889C20.5513 54.1483 20.7735 54.6848 21.1691 55.0804C21.5647 55.476 22.1012 55.6982 22.6606 55.6982Z" fill="#232946"/>
<path d="M65.5369 75.835H71.0782C71.6376 75.835 72.1742 75.6127 72.5697 75.2171C72.9653 74.8216 73.1876 74.285 73.1876 73.7256C73.1876 73.1661 72.9653 72.6296 72.5697 72.234C72.1742 71.8384 71.6376 71.6162 71.0782 71.6162H65.5369C64.9774 71.6162 64.4409 71.8384 64.0453 72.234C63.6497 72.6296 63.4275 73.1661 63.4275 73.7256C63.4275 74.285 63.6497 74.8216 64.0453 75.2171C64.4409 75.6127 64.9774 75.835 65.5369 75.835V75.835Z" fill="#232946"/>
<path d="M57.4129 73.7256C57.4129 73.1661 57.1907 72.6296 56.7951 72.234C56.3995 71.8384 55.863 71.6162 55.3035 71.6162H34.085C33.5255 71.6162 32.989 71.8384 32.5934 72.234C32.1978 72.6296 31.9756 73.1661 31.9756 73.7256C31.9756 74.285 32.1978 74.8216 32.5934 75.2171C32.989 75.6127 33.5255 75.835 34.085 75.835H55.3035C55.863 75.835 56.3995 75.6127 56.7951 75.2171C57.1907 74.8216 57.4129 74.285 57.4129 73.7256V73.7256Z" fill="#232946"/>
<path d="M22.6606 75.835H26.0652C26.6246 75.835 27.1611 75.6127 27.5567 75.2171C27.9523 74.8216 28.1746 74.285 28.1746 73.7256C28.1746 73.1661 27.9523 72.6296 27.5567 72.234C27.1611 71.8384 26.6246 71.6162 26.0652 71.6162H22.6606C22.1012 71.6162 21.5647 71.8384 21.1691 72.234C20.7735 72.6296 20.5513 73.1661 20.5513 73.7256C20.5513 74.285 20.7735 74.8216 21.1691 75.2171C21.5647 75.6127 22.1012 75.835 22.6606 75.835V75.835Z" fill="#232946"/>
<path d="M89.0801 94.4473H94.3795C94.939 94.4473 95.4755 94.225 95.8711 93.8294C96.2667 93.4339 96.4889 92.8973 96.4889 92.3379C96.4889 91.7784 96.2667 91.2419 95.8711 90.8463C95.4755 90.4508 94.939 90.2285 94.3795 90.2285H89.0801C88.5206 90.2285 87.9841 90.4508 87.5885 90.8463C87.1929 91.2419 86.9707 91.7784 86.9707 92.3379C86.9707 92.8973 87.1929 93.4339 87.5885 93.8294C87.9841 94.225 88.5206 94.4473 89.0801 94.4473V94.4473Z" fill="#232946"/>
<path d="M80.978 94.4473H81.0599C81.6194 94.4473 82.1559 94.225 82.5515 93.8294C82.9471 93.4339 83.1693 92.8973 83.1693 92.3379C83.1693 91.7784 82.9471 91.2419 82.5515 90.8463C82.1559 90.4508 81.6194 90.2285 81.0599 90.2285H80.978C80.4186 90.2285 79.8821 90.4508 79.4865 90.8463C79.0909 91.2419 78.8687 91.7784 78.8687 92.3379C78.8687 92.8973 79.0909 93.4339 79.4865 93.8294C79.8821 94.225 80.4186 94.4473 80.978 94.4473V94.4473Z" fill="#232946"/>
<path d="M39.0918 92.3379C39.0918 92.8973 39.314 93.4339 39.7096 93.8294C40.1052 94.225 40.6417 94.4473 41.2012 94.4473H73.4602C74.0196 94.4473 74.5562 94.225 74.9517 93.8294C75.3473 93.4339 75.5696 92.8973 75.5696 92.3379C75.5696 91.7784 75.3473 91.2419 74.9517 90.8463C74.5562 90.4508 74.0196 90.2285 73.4602 90.2285H41.2012C40.6417 90.2285 40.1052 90.4508 39.7096 90.8463C39.314 91.2419 39.0918 91.7784 39.0918 92.3379Z" fill="#232946"/>
<path d="M22.6606 94.4473H32.9899C33.5493 94.4473 34.0859 94.225 34.4815 93.8294C34.877 93.4339 35.0993 92.8973 35.0993 92.3379C35.0993 91.7784 34.877 91.2419 34.4815 90.8463C34.0859 90.4508 33.5493 90.2285 32.9899 90.2285H22.6606C22.1012 90.2285 21.5647 90.4508 21.1691 90.8463C20.7735 91.2419 20.5513 91.7784 20.5513 92.3379C20.5513 92.8973 20.7735 93.4339 21.1691 93.8294C21.5647 94.225 22.1012 94.4473 22.6606 94.4473Z" fill="#232946"/>
</svg>
