<svg width="180" height="180" viewBox="0 0 180 180" fill="none" xmlns="http://www.w3.org/2000/svg">
<g clip-path="url(#clip0)">
<g filter="url(#filter0_d)">
<path d="M47.8125 78.75V83.7113L35.9775 107.384C35.5592 108.219 35.3614 109.147 35.403 110.081C35.4446 111.014 35.7242 111.921 36.2152 112.715C36.7062 113.51 37.3923 114.165 38.2083 114.62C39.0242 115.075 39.9428 115.313 40.8769 115.312H47.8125V139.843C47.8147 142.288 48.7868 144.631 50.5153 146.36C52.2437 148.088 54.5874 149.06 57.0319 149.062H84.375V171.562C84.375 172.308 84.6713 173.024 85.1988 173.551C85.7262 174.079 86.4416 174.375 87.1875 174.375H120.938C121.683 174.375 122.399 174.079 122.926 173.551C123.454 173.024 123.75 172.308 123.75 171.562V138.977L139.801 122.926C140.328 122.399 140.625 121.683 140.625 120.938V78.75H143.438C144.183 78.75 144.899 78.4537 145.426 77.9262C145.954 77.3988 146.25 76.6834 146.25 75.9375V8.4375C146.25 7.69158 145.954 6.97621 145.426 6.44876C144.899 5.92132 144.183 5.625 143.438 5.625H70.3125C66.5843 5.62947 63.01 7.11248 60.3737 9.74874C57.7375 12.385 56.2545 15.9593 56.25 19.6875C56.2603 22.7404 57.2743 25.7052 59.1356 28.125H59.0625C55.3343 28.1295 51.76 29.6125 49.1237 32.2487C46.4875 34.885 45.0045 38.4593 45 42.1875C45.0103 45.2404 46.0243 48.2052 47.8856 50.625H47.8125C44.0829 50.625 40.506 52.1066 37.8688 54.7438C35.2316 57.381 33.75 60.9579 33.75 64.6875C33.75 68.4171 35.2316 71.994 37.8688 74.6312C40.506 77.2684 44.0829 78.75 47.8125 78.75ZM135 119.773L118.949 135.824C118.422 136.351 118.125 137.067 118.125 137.812V168.75H90V146.25C90 145.504 89.7037 144.789 89.1762 144.261C88.6488 143.734 87.9334 143.438 87.1875 143.438H57.0319C56.0788 143.437 55.165 143.058 54.4911 142.384C53.8172 141.71 53.4382 140.796 53.4375 139.843V112.5C53.4375 111.754 53.1412 111.039 52.6137 110.511C52.0863 109.984 51.3709 109.688 50.625 109.688L41.0091 109.898L53.1562 85.6322C53.346 85.2405 53.4423 84.8102 53.4375 84.375V78.75H106.875V92.8125C106.875 93.3687 107.04 93.9123 107.349 94.3747C107.658 94.8371 108.097 95.1975 108.611 95.4103C109.125 95.6232 109.691 95.6789 110.236 95.5704C110.782 95.4619 111.283 95.1942 111.676 94.8009L118.125 88.3519L124.574 94.8009C124.967 95.1942 125.468 95.4619 126.014 95.5704C126.559 95.6789 127.125 95.6232 127.639 95.4103C128.153 95.1975 128.592 94.8371 128.901 94.3747C129.21 93.9123 129.375 93.3687 129.375 92.8125V78.75H135V119.773ZM112.5 86.0231V67.5H123.75V86.0231L120.113 82.3866C119.586 81.8593 118.871 81.5631 118.125 81.5631C117.379 81.5631 116.664 81.8593 116.137 82.3866L112.5 86.0231ZM140.625 73.125H129.375V67.5H140.625V73.125ZM140.625 61.875H101.25V67.5H106.875V73.125H73.125C70.8872 73.125 68.7411 72.2361 67.1588 70.6537C65.5764 69.0714 64.6875 66.9253 64.6875 64.6875C64.6875 62.4497 65.5764 60.3036 67.1588 58.7213C68.7411 57.1389 70.8872 56.25 73.125 56.25H140.625V61.875ZM140.625 39.375H109.688V45H140.625V50.625H80.3981C78.3199 50.4574 76.3914 49.478 75.0301 47.8988C73.6688 46.3196 72.9844 44.2677 73.125 42.1875C72.9844 40.1073 73.6688 38.0554 75.0301 36.4762C76.3914 34.897 78.3199 33.9176 80.3981 33.75H140.625V39.375ZM90.0984 11.25H140.625V16.875H120.938V22.5H140.625V28.125H90.0984C86.9963 28.125 84.375 24.2606 84.375 19.6875C84.375 15.1144 86.9963 11.25 90.0984 11.25ZM70.3125 11.25H81.0787C79.5548 13.8006 78.7501 16.7163 78.7501 19.6875C78.7501 22.6587 79.5548 25.5744 81.0787 28.125H70.3125C68.0747 28.125 65.9286 27.2361 64.3463 25.6537C62.7639 24.0714 61.875 21.9253 61.875 19.6875C61.875 17.4497 62.7639 15.3036 64.3463 13.7213C65.9286 12.1389 68.0747 11.25 70.3125 11.25ZM59.0625 33.75H70.1466C68.4237 36.2264 67.5002 39.1708 67.5002 42.1875C67.5002 45.2042 68.4237 48.1486 70.1466 50.625H59.0625C56.8247 50.625 54.6786 49.7361 53.0963 48.1537C51.5139 46.5714 50.625 44.4253 50.625 42.1875C50.625 39.9497 51.5139 37.8036 53.0963 36.2213C54.6786 34.6389 56.8247 33.75 59.0625 33.75ZM47.8125 56.25H61.9481C60.078 58.6651 59.0633 61.633 59.0633 64.6875C59.0633 67.742 60.078 70.7099 61.9481 73.125H47.8125C45.5747 73.125 43.4286 72.2361 41.8463 70.6537C40.2639 69.0714 39.375 66.9253 39.375 64.6875C39.375 62.4497 40.2639 60.3036 41.8463 58.7213C43.4286 57.1389 45.5747 56.25 47.8125 56.25Z" fill="#232946"/>
</g>
<g filter="url(#filter1_d)">
<path d="M104.062 39.375H98.4375V45H104.062V39.375Z" fill="#232946"/>
</g>
<g filter="url(#filter2_d)">
<path d="M115.312 16.875H109.688V22.5H115.312V16.875Z" fill="#232946"/>
</g>
<g filter="url(#filter3_d)">
<path d="M95.625 61.875H90V67.5H95.625V61.875Z" fill="#232946"/>
</g>
</g>
<defs>
<filter id="filter0_d" x="29.75" y="5.625" width="120.5" height="176.75" filterUnits="userSpaceOnUse" color-interpolation-filters="sRGB">
<feFlood flood-opacity="0" result="BackgroundImageFix"/>
<feColorMatrix in="SourceAlpha" type="matrix" values="0 0 0 0 0 0 0 0 0 0 0 0 0 0 0 0 0 0 127 0"/>
<feOffset dy="4"/>
<feGaussianBlur stdDeviation="2"/>
<feColorMatrix type="matrix" values="0 0 0 0 0 0 0 0 0 0 0 0 0 0 0 0 0 0 0.25 0"/>
<feBlend mode="normal" in2="BackgroundImageFix" result="effect1_dropShadow"/>
<feBlend mode="normal" in="SourceGraphic" in2="effect1_dropShadow" result="shape"/>
</filter>
<filter id="filter1_d" x="94.4375" y="39.375" width="13.625" height="13.625" filterUnits="userSpaceOnUse" color-interpolation-filters="sRGB">
<feFlood flood-opacity="0" result="BackgroundImageFix"/>
<feColorMatrix in="SourceAlpha" type="matrix" values="0 0 0 0 0 0 0 0 0 0 0 0 0 0 0 0 0 0 127 0"/>
<feOffset dy="4"/>
<feGaussianBlur stdDeviation="2"/>
<feColorMatrix type="matrix" values="0 0 0 0 0 0 0 0 0 0 0 0 0 0 0 0 0 0 0.25 0"/>
<feBlend mode="normal" in2="BackgroundImageFix" result="effect1_dropShadow"/>
<feBlend mode="normal" in="SourceGraphic" in2="effect1_dropShadow" result="shape"/>
</filter>
<filter id="filter2_d" x="105.688" y="16.875" width="13.625" height="13.625" filterUnits="userSpaceOnUse" color-interpolation-filters="sRGB">
<feFlood flood-opacity="0" result="BackgroundImageFix"/>
<feColorMatrix in="SourceAlpha" type="matrix" values="0 0 0 0 0 0 0 0 0 0 0 0 0 0 0 0 0 0 127 0"/>
<feOffset dy="4"/>
<feGaussianBlur stdDeviation="2"/>
<feColorMatrix type="matrix" values="0 0 0 0 0 0 0 0 0 0 0 0 0 0 0 0 0 0 0.25 0"/>
<feBlend mode="normal" in2="BackgroundImageFix" result="effect1_dropShadow"/>
<feBlend mode="normal" in="SourceGraphic" in2="effect1_dropShadow" result="shape"/>
</filter>
<filter id="filter3_d" x="86" y="61.875" width="13.625" height="13.625" filterUnits="userSpaceOnUse" color-interpolation-filters="sRGB">
<feFlood flood-opacity="0" result="BackgroundImageFix"/>
<feColorMatrix in="SourceAlpha" type="matrix" values="0 0 0 0 0 0 0 0 0 0 0 0 0 0 0 0 0 0 127 0"/>
<feOffset dy="4"/>
<feGaussianBlur stdDeviation="2"/>
<feColorMatrix type="matrix" values="0 0 0 0 0 0 0 0 0 0 0 0 0 0 0 0 0 0 0.25 0"/>
<feBlend mode="normal" in2="BackgroundImageFix" result="effect1_dropShadow"/>
<feBlend mode="normal" in="SourceGraphic" in2="effect1_dropShadow" result="shape"/>
</filter>
<clipPath id="clip0">
<rect width="180" height="180" fill="white"/>
</clipPath>
</defs>
</svg>
