<svg width="80" height="80" viewBox="0 0 80 80" fill="none" xmlns="http://www.w3.org/2000/svg">
<path d="M67.9428 30.9245C70.2266 29.3464 71.7266 26.7116 71.7266 23.732V20.4725V17.215C71.7266 12.3966 67.8064 8.47656 62.988 8.47656C58.1695 8.47656 54.2495 12.3967 54.2495 17.215V20.4734V23.732C54.2495 26.7117 55.7495 29.3466 58.0333 30.9245C54.2055 32.1314 50.9117 34.6227 48.7386 37.8288V35.8716C48.7386 31.0531 44.8184 27.1331 40 27.1331C35.1816 27.1331 31.2616 31.0533 31.2616 35.8716V37.8288C29.0884 34.6228 25.7945 32.1314 21.9667 30.9245C24.2505 29.3464 25.7505 26.7116 25.7505 23.732V17.2152C25.7505 12.3967 21.8305 8.47672 17.0119 8.47672C12.6452 8.47672 9.01625 11.6962 8.37422 15.8862C8.30781 16.3197 8.27344 16.7634 8.27344 17.2152V23.732C8.27344 26.7117 9.77359 29.3466 12.0572 30.9245C5.16359 33.0978 0 39.4375 0 46.6141V51.7016C0 52.3453 0.521875 52.867 1.16547 52.867H7.49641C8.14 52.867 8.66187 52.3453 8.66187 51.7016C8.66187 51.058 8.14 50.5361 7.49641 50.5361H2.33094V46.6141C2.33094 42.9352 3.9025 39.4162 6.75594 36.705C8.42031 35.1237 10.4267 33.9384 12.5689 33.2261L13.9614 35.9314L11.9478 44.6717C11.8534 45.0811 11.9869 45.5097 12.2967 45.7931L16.225 49.3884C16.4477 49.5922 16.7297 49.6942 17.0117 49.6942C17.2938 49.6942 17.5758 49.5923 17.7984 49.3884L21.7266 45.7931C22.0364 45.5095 22.1697 45.0811 22.0755 44.6717L20.062 35.9316L21.4545 33.2261C23.5967 33.9384 25.6031 35.1236 27.2677 36.705C29.362 38.6948 30.7645 41.1202 31.3633 43.7242C31.4006 43.9666 31.45 44.2048 31.5069 44.4402C31.6294 45.1552 31.6925 45.8812 31.6925 46.6141V50.5361H11.3811C10.7375 50.5361 10.2156 51.058 10.2156 51.7016C10.2156 52.3453 10.7375 52.867 11.3811 52.867H29.0373C25.3614 55.9258 22.988 60.4055 22.988 65.2702V70.3577C22.988 71.0014 23.5098 71.5231 24.1534 71.5231H30.4844C31.128 71.5231 31.6498 71.0014 31.6498 70.3577C31.6498 69.7139 31.128 69.1922 30.4844 69.1922H25.3191V65.2702C25.3191 61.5913 26.8906 58.0723 29.7441 55.3611C31.4084 53.7798 33.4148 52.5945 35.557 51.8822L36.9495 54.5877L34.9361 63.3278C34.8417 63.7372 34.9752 64.1656 35.285 64.4492L39.2133 68.0447C39.4359 68.2484 39.718 68.3505 40 68.3505C40.282 68.3505 40.5642 68.2486 40.7869 68.0447L44.715 64.4492C45.0248 64.1656 45.1581 63.7372 45.0639 63.3278L43.0505 54.5877L44.443 51.8822C46.5852 52.5945 48.5916 53.7797 50.2559 55.3611C53.1094 58.0722 54.6809 61.5913 54.6809 65.2702V69.1922H34.3692C33.7256 69.1922 33.2038 69.7139 33.2038 70.3577C33.2038 71.0014 33.7256 71.5231 34.3692 71.5231H55.8464C56.49 71.5231 57.0119 71.0014 57.0119 70.3577V65.2702C57.0119 60.4053 54.6384 55.9256 50.9627 52.867H56.923C57.5666 52.867 58.0884 52.3453 58.0884 51.7016C58.0884 51.058 57.5666 50.5361 56.923 50.5361H48.3073V46.6139C48.3073 45.8808 48.3708 45.1542 48.4933 44.4389C48.5498 44.2044 48.5991 43.967 48.6362 43.7256C49.2347 41.1209 50.6375 38.6952 52.7322 36.7048C54.3967 35.1236 56.4031 33.9383 58.5453 33.2259L59.9378 35.9312L57.9244 44.6717C57.83 45.0811 57.9634 45.5095 58.2733 45.7931L62.2014 49.3884C62.4241 49.5925 62.7061 49.6942 62.9881 49.6942C63.2702 49.6942 63.5523 49.5923 63.7748 49.3884L67.7031 45.7931C68.013 45.5097 68.1462 45.0811 68.052 44.6717L66.0386 35.9314L67.4311 33.2261C69.5733 33.9384 71.5797 35.1237 73.2441 36.705C76.0975 39.4161 77.6691 42.9352 77.6691 46.6141V50.5361H60.808C60.1644 50.5361 59.6425 51.058 59.6425 51.7016C59.6425 52.3453 60.1644 52.867 60.808 52.867H78.8345C79.4781 52.867 80 52.3453 80 51.7016V46.6141C80 39.4375 74.8364 33.0978 67.9428 30.9245ZM10.6042 17.215C10.6042 13.6819 13.4786 10.8075 17.0119 10.8075C20.5452 10.8075 23.4195 13.6819 23.4195 17.215V19.1647C20.7205 18.4989 19.6097 15.7205 19.5592 15.5909C19.3977 15.1642 19.0019 14.8711 18.5466 14.8409C18.0912 14.8114 17.6603 15.0489 17.4438 15.4505C17.4245 15.4864 15.5795 18.7963 10.6042 19.2552V17.215ZM17.012 46.9486L14.3722 44.5325L16.1206 36.9428H17.9034L19.6519 44.5325L17.012 46.9486ZM14.8928 32.6478C15.1202 32.6105 15.3483 32.5787 15.5769 32.5523C15.6092 32.5486 15.6416 32.5455 15.6739 32.5419C15.8552 32.5222 16.0364 32.5064 16.218 32.4936C16.2683 32.49 16.3186 32.4859 16.3691 32.483C16.518 32.4739 16.6669 32.4694 16.8156 32.4653C16.8811 32.4667 16.9459 32.4703 17.0117 32.4703C17.0775 32.4703 17.1423 32.4667 17.2078 32.4653C17.3567 32.4695 17.5056 32.4741 17.6542 32.483C17.7047 32.4859 17.755 32.4902 17.8056 32.4936C17.9872 32.5066 18.1683 32.5222 18.3494 32.5419C18.3819 32.5453 18.4144 32.5486 18.4469 32.5523C18.6753 32.5787 18.9033 32.6105 19.1306 32.6478L18.12 34.6117H15.9037L14.8928 32.6478ZM17.267 30.133C17.1875 30.1308 17.108 30.1278 17.028 30.1267C17.0173 30.1264 17.0069 30.1264 16.9963 30.1267H16.9961C16.9163 30.1278 16.8369 30.1308 16.757 30.133C13.3416 29.9984 10.6042 27.1795 10.6042 23.7319V21.5942C14.5702 21.292 17.0067 19.4845 18.3041 18.1186C19.2128 19.4484 20.8422 21.1348 23.4195 21.545V23.7319C23.4197 27.1795 20.6823 29.9984 17.267 30.133ZM33.5922 35.8714C33.5923 32.3383 36.4669 29.4639 40 29.4639C40.6625 29.4639 41.3017 29.5648 41.9033 29.7525C44.5098 30.565 46.4075 33.0008 46.4075 35.8716V37.8213C43.7086 37.1555 42.5977 34.3772 42.5473 34.2475C42.3858 33.8209 41.99 33.5278 41.5347 33.4977C41.0798 33.4691 40.6484 33.7056 40.4319 34.1072C40.4125 34.1431 38.5677 37.453 33.5923 37.9119V35.8714H33.5922ZM34.0238 49.9386V48.7552C34.343 49.0548 34.6839 49.3312 35.0452 49.5808C34.7003 49.6895 34.3598 49.8094 34.0238 49.9386ZM40 65.605L37.3602 63.1887L39.1087 55.5991H40.8916L42.64 63.1887L40 65.605ZM37.8812 51.3042C38.1086 51.2669 38.3367 51.2352 38.5653 51.2087C38.5977 51.205 38.63 51.2019 38.6623 51.1983C38.8436 51.1786 39.0248 51.1628 39.2064 51.15C39.2567 51.1464 39.307 51.1423 39.3575 51.1394C39.5064 51.1303 39.6553 51.1259 39.8041 51.1217C39.8695 51.1231 39.9344 51.1267 40.0002 51.1267C40.0659 51.1267 40.1308 51.1231 40.1963 51.1217C40.3452 51.1261 40.4941 51.1305 40.6427 51.1394C40.693 51.1423 40.7434 51.1466 40.7939 51.15C40.9755 51.163 41.1567 51.1786 41.3377 51.1983C41.3702 51.2017 41.4027 51.205 41.4352 51.2087C41.6636 51.2353 41.8917 51.2669 42.1189 51.3042L41.1081 53.2683H38.892L37.8812 51.3042ZM45.9762 49.9386C45.6403 49.8092 45.3 49.6895 44.9548 49.5808C45.3161 49.3312 45.657 49.0547 45.9762 48.755V49.9386ZM46.4077 42.3883C46.4077 42.7172 46.3827 43.0403 46.3347 43.3561C46.2937 43.5405 46.2572 43.7261 46.2231 43.9123C45.5566 46.6322 43.1502 48.6752 40.2552 48.7892C40.1755 48.787 40.0961 48.7841 40.0161 48.783C40.0055 48.7827 39.995 48.7827 39.9844 48.783C39.9045 48.7841 39.825 48.787 39.7453 48.7892C36.8509 48.6753 34.4445 46.6331 33.7777 43.9137C33.7434 43.7267 33.7067 43.5403 33.6656 43.3553C33.6177 43.0397 33.5927 42.7167 33.5927 42.3881V40.2506C37.5586 39.9484 39.9952 38.1409 41.2925 36.775C42.2013 38.1047 43.8306 39.7911 46.4078 40.2014V42.3883H46.4077ZM56.5805 17.215C56.5805 13.6819 59.4548 10.8075 62.988 10.8075C66.5211 10.8075 69.3956 13.6819 69.3956 17.215V19.1647C66.6967 18.4987 65.5856 15.7205 65.5355 15.5909C65.3739 15.1644 64.9781 14.8713 64.5228 14.8411C64.0669 14.8116 63.6364 15.0491 63.42 15.4506C63.4006 15.4866 61.5559 18.7964 56.5806 19.2553V17.215H56.5805ZM62.988 46.9486L60.3481 44.5325L62.0966 36.9428H63.8794L65.6278 44.5325L62.988 46.9486ZM60.8692 32.6478C61.0966 32.6105 61.3245 32.5787 61.553 32.5523C61.5855 32.5486 61.618 32.5453 61.6505 32.5419C61.8316 32.5222 62.0128 32.5064 62.1942 32.4936C62.2447 32.49 62.295 32.4859 62.3456 32.483C62.4944 32.4739 62.6433 32.4695 62.792 32.4653C62.8575 32.4667 62.9223 32.4703 62.9881 32.4703C63.0539 32.4703 63.1188 32.4667 63.1842 32.4653C63.3331 32.4695 63.482 32.4741 63.6308 32.483C63.6811 32.4859 63.7316 32.4902 63.782 32.4936C63.9636 32.5066 64.145 32.5222 64.3261 32.5419C64.3584 32.5453 64.3908 32.5486 64.4231 32.5523C64.6517 32.5789 64.8797 32.6105 65.1072 32.6478L64.0964 34.6117H61.8803L60.8692 32.6478ZM63.2428 30.133C63.1633 30.1308 63.0838 30.1278 63.0037 30.1267C62.9931 30.1264 62.9827 30.1264 62.972 30.1267H62.9719C62.892 30.1278 62.8127 30.1308 62.7328 30.133C59.3177 29.9984 56.5803 27.1795 56.5803 23.7319V21.5942C60.5461 21.292 62.9827 19.4845 64.28 18.1186C65.1888 19.4484 66.8181 21.1348 69.3955 21.545V23.7319C69.3956 27.1795 66.6581 29.9984 63.2428 30.133Z" fill="#232946"/>
</svg>
