<svg width="80" height="80" viewBox="0 0 80 80" fill="none" xmlns="http://www.w3.org/2000/svg">
<path d="M80 4.58301H46.25C43.7891 4.58301 41.5681 5.62441 40 7.2877C38.4319 5.62441 36.2109 4.58301 33.75 4.58301H0V60.9372H17.9645C21.6602 69.4483 30.1456 75.4164 40 75.4164C49.8544 75.4164 58.3398 69.4483 62.0355 60.9372H80V4.58301ZM75.3125 56.2497H63.5194C63.8412 54.6847 64.0105 53.0647 64.0105 51.406C64.0105 49.5252 63.7925 47.6946 63.3816 45.9372H68.8281V41.2497H61.7531C60.8517 39.3268 59.703 37.5424 58.3475 35.9372H68.8281V31.2497H53.0325C49.8953 29.2143 46.2556 27.891 42.3438 27.5102V13.1768C42.3438 11.0229 44.0961 9.27051 46.25 9.27051H75.3125V56.2497ZM40 70.7289C29.3453 70.7289 20.677 62.0607 20.677 51.406C20.677 40.7513 29.3453 32.083 40 32.083C50.6547 32.083 59.323 40.7513 59.323 51.406C59.323 62.0607 50.6547 70.7289 40 70.7289ZM4.6875 9.27051H33.75C35.9039 9.27051 37.6562 11.0229 37.6562 13.1768V27.51C33.7444 27.8908 30.1047 29.2141 26.9673 31.2496H11.1719V35.9371H21.6523C20.297 37.5422 19.1481 39.3266 18.2467 41.2496H11.1719V45.9371H16.6184C16.2075 47.6944 15.9895 49.525 15.9895 51.4058C15.9895 53.0646 16.1588 54.6846 16.4806 56.2496H4.6875V9.27051Z" fill="#232946"/>
<path d="M11.1719 21.25H31.1719V25.9375H11.1719V21.25Z" fill="#232946"/>
<path d="M48.8281 21.25H68.8281V25.9375H48.8281V21.25Z" fill="#232946"/>
<path d="M51.1719 53.4353V49.3759L34.9375 40.0029L31.4219 42.0326V60.7784L34.9375 62.8081L51.1719 53.4353ZM36.1094 46.0921L45.3125 51.4056L36.1094 56.719V46.0921Z" fill="#232946"/>
</svg>
