<svg width="80" height="80" viewBox="0 0 80 80" fill="none" xmlns="http://www.w3.org/2000/svg">
<path d="M74.375 8.75H5.625C4.46507 8.75128 3.35302 9.21263 2.53282 10.0328C1.71263 10.853 1.25128 11.9651 1.25 13.125V66.875C1.25128 68.0349 1.71263 69.147 2.53282 69.9672C3.35302 70.7874 4.46507 71.2487 5.625 71.25H74.375C75.5349 71.2487 76.647 70.7874 77.4672 69.9672C78.2874 69.147 78.7487 68.0349 78.75 66.875V13.125C78.7487 11.9651 78.2874 10.853 77.4672 10.0328C76.647 9.21263 75.5349 8.75128 74.375 8.75ZM76.25 66.875C76.2496 67.3722 76.0519 67.8488 75.7004 68.2004C75.3488 68.5519 74.8722 68.7496 74.375 68.75H5.625C5.12785 68.7496 4.65117 68.5519 4.29963 68.2004C3.94809 67.8488 3.75041 67.3722 3.75 66.875V61.25H76.25V66.875ZM76.25 58.75H3.75V18.75H76.25V58.75ZM76.25 16.25H3.75V13.125C3.75041 12.6278 3.94809 12.1512 4.29963 11.7996C4.65117 11.4481 5.12785 11.2504 5.625 11.25H74.375C74.8722 11.2504 75.3488 11.4481 75.7004 11.7996C76.0519 12.1512 76.2496 12.6278 76.25 13.125V16.25Z" fill="#232946"/>
<path d="M6.25 15H7.5C7.83152 15 8.14946 14.8683 8.38388 14.6339C8.6183 14.3995 8.75 14.0815 8.75 13.75C8.75 13.4185 8.6183 13.1005 8.38388 12.8661C8.14946 12.6317 7.83152 12.5 7.5 12.5H6.25C5.91848 12.5 5.60054 12.6317 5.36612 12.8661C5.1317 13.1005 5 13.4185 5 13.75C5 14.0815 5.1317 14.3995 5.36612 14.6339C5.60054 14.8683 5.91848 15 6.25 15Z" fill="#232946"/>
<path d="M11.25 15H12.5C12.8315 15 13.1495 14.8683 13.3839 14.6339C13.6183 14.3995 13.75 14.0815 13.75 13.75C13.75 13.4185 13.6183 13.1005 13.3839 12.8661C13.1495 12.6317 12.8315 12.5 12.5 12.5H11.25C10.9185 12.5 10.6005 12.6317 10.3661 12.8661C10.1317 13.1005 10 13.4185 10 13.75C10 14.0815 10.1317 14.3995 10.3661 14.6339C10.6005 14.8683 10.9185 15 11.25 15Z" fill="#232946"/>
<path d="M16.25 15H17.5C17.8315 15 18.1495 14.8683 18.3839 14.6339C18.6183 14.3995 18.75 14.0815 18.75 13.75C18.75 13.4185 18.6183 13.1005 18.3839 12.8661C18.1495 12.6317 17.8315 12.5 17.5 12.5H16.25C15.9185 12.5 15.6005 12.6317 15.3661 12.8661C15.1317 13.1005 15 13.4185 15 13.75C15 14.0815 15.1317 14.3995 15.3661 14.6339C15.6005 14.8683 15.9185 15 16.25 15Z" fill="#232946"/>
<path d="M40 26.25C37.2805 26.25 34.6221 27.0564 32.3609 28.5673C30.0997 30.0782 28.3374 32.2256 27.2967 34.7381C26.256 37.2506 25.9837 40.0152 26.5142 42.6825C27.0448 45.3497 28.3543 47.7997 30.2773 49.7227C32.2003 51.6457 34.6503 52.9552 37.3175 53.4858C39.9848 54.0163 42.7494 53.744 45.2619 52.7033C47.7744 51.6626 49.9218 49.9003 51.4327 47.6391C52.9436 45.3779 53.75 42.7195 53.75 40C53.7459 36.3545 52.2959 32.8596 49.7182 30.2818C47.1404 27.7041 43.6455 26.2541 40 26.25ZM40 51.25C37.775 51.25 35.5999 50.5902 33.7498 49.354C31.8998 48.1179 30.4578 46.3608 29.6064 44.3052C28.7549 42.2495 28.5321 39.9875 28.9662 37.8052C29.4003 35.6229 30.4717 33.6184 32.0451 32.045C33.6184 30.4717 35.623 29.4002 37.8052 28.9662C39.9875 28.5321 42.2495 28.7549 44.3052 29.6064C46.3609 30.4578 48.1179 31.8998 49.354 33.7498C50.5902 35.5999 51.25 37.775 51.25 40C51.2466 42.9826 50.0602 45.8421 47.9512 47.9511C45.8421 50.0602 42.9826 51.2466 40 51.25Z" fill="#232946"/>
<path d="M45.6937 38.959L38.1938 33.959C38.0054 33.8338 37.7866 33.7621 37.5607 33.7514C37.3347 33.7407 37.1101 33.7914 36.9108 33.8982C36.7114 34.0049 36.5446 34.1637 36.4283 34.3576C36.3119 34.5516 36.2503 34.7734 36.25 34.9996V44.9996C36.2502 45.2258 36.3117 45.4478 36.428 45.6418C36.5443 45.8359 36.7111 45.9947 36.9105 46.1015C37.11 46.2083 37.3346 46.259 37.5606 46.2482C37.7866 46.2374 38.0054 46.1655 38.1938 46.0402L45.6937 41.0402C45.8649 40.9259 46.0052 40.7711 46.1022 40.5896C46.1992 40.4081 46.25 40.2054 46.25 39.9996C46.25 39.7938 46.1992 39.5911 46.1022 39.4096C46.0052 39.2281 45.8649 39.0733 45.6937 38.959ZM38.75 42.6637V37.3355L42.7469 39.9996L38.75 42.6637Z" fill="#232946"/>
<path d="M68.75 63.75H18.75C18.75 63.4185 18.6183 63.1005 18.3839 62.8661C18.1495 62.6317 17.8315 62.5 17.5 62.5C17.1685 62.5 16.8505 62.6317 16.6161 62.8661C16.3817 63.1005 16.25 63.4185 16.25 63.75H11.25C10.9185 63.75 10.6005 63.8817 10.3661 64.1161C10.1317 64.3505 10 64.6685 10 65C10 65.3315 10.1317 65.6495 10.3661 65.8839C10.6005 66.1183 10.9185 66.25 11.25 66.25H16.25C16.25 66.5815 16.3817 66.8995 16.6161 67.1339C16.8505 67.3683 17.1685 67.5 17.5 67.5C17.8315 67.5 18.1495 67.3683 18.3839 67.1339C18.6183 66.8995 18.75 66.5815 18.75 66.25H68.75C69.0815 66.25 69.3995 66.1183 69.6339 65.8839C69.8683 65.6495 70 65.3315 70 65C70 64.6685 69.8683 64.3505 69.6339 64.1161C69.3995 63.8817 69.0815 63.75 68.75 63.75Z" fill="#232946"/>
</svg>
