<svg width="32" height="32" viewBox="0 0 32 32" fill="none" xmlns="http://www.w3.org/2000/svg">
<path fill-rule="evenodd" clip-rule="evenodd" d="M0 0H32V32H0V0Z" fill="white"/>
<path d="M30.0916 25.8087H1.90906H1.41113V25.3108V6.67175V6.17383H1.90906H30.0916H30.5896V6.67175V25.3108V25.8087H30.0916Z" fill="#005A9C"/>
<path fill-rule="evenodd" clip-rule="evenodd" d="M30.0918 25.3109H1.90918V6.67188H30.0918V25.3109Z" fill="white"/>
<path fill-rule="evenodd" clip-rule="evenodd" d="M12.0996 19.021L13.9253 12.9961H15.5519L13.7262 19.021H12.0996Z" fill="#005A9C"/>
<path fill-rule="evenodd" clip-rule="evenodd" d="M11.3689 12.9961L9.90828 15.5521C9.52653 16.216 9.31076 16.5646 9.21118 16.9795H9.19459C9.22778 16.4484 9.14478 15.7845 9.14478 15.4193L8.97881 12.9961H6.22363L6.19043 13.1621C6.90412 13.1621 7.31906 13.5106 7.43524 14.2409L7.96637 19.0376H9.65931L13.0784 13.0127H11.3689V12.9961Z" fill="#005A9C"/>
<path fill-rule="evenodd" clip-rule="evenodd" d="M24.0663 19.021L24.0165 18.1247H21.9751L21.5601 19.021H19.7842L23.0041 12.9961H25.1784L25.7261 19.021H24.0663ZM23.8672 15.4691C23.8506 15.021 23.834 14.4235 23.8672 14.0583H23.8506C23.751 14.3571 23.3195 15.2534 23.1369 15.7015L22.5228 17.0293H23.9502L23.8672 15.4691Z" fill="#005A9C"/>
<path fill-rule="evenodd" clip-rule="evenodd" d="M17.2611 19.2035C16.1159 19.2035 15.3358 18.8384 14.8047 18.5064L15.5848 17.3114C16.0827 17.5936 16.4644 17.9089 17.3441 17.9089C17.6263 17.9089 17.9084 17.8425 18.0578 17.5604C18.2902 17.162 18.008 16.9629 17.3607 16.5977L17.0454 16.3985C16.0993 15.7512 15.6844 15.1371 16.1325 14.0749C16.4146 13.3944 17.1615 12.8633 18.4063 12.8633C19.2528 12.8633 20.0661 13.2284 20.5308 13.5936L19.6346 14.6392C19.1864 14.2741 18.8047 14.0915 18.3732 14.0915C18.0246 14.0915 17.759 14.2243 17.6761 14.4068C17.5101 14.7388 17.7258 14.9712 18.2238 15.2865L18.6055 15.5189C19.7507 16.2492 20.0329 16.9961 19.7342 17.7098C19.2528 18.9214 18.2902 19.2035 17.2611 19.2035Z" fill="#005A9C"/>
<path fill-rule="evenodd" clip-rule="evenodd" d="M26.207 13.8094H26.1406V13.3779H26.3065C26.4061 13.3779 26.4559 13.4111 26.4559 13.4941C26.4559 13.5771 26.4061 13.6103 26.3397 13.6103L26.4559 13.7928H26.3895L26.2734 13.6103H26.207V13.8094ZM26.29 13.5605C26.3397 13.5605 26.3895 13.5605 26.3895 13.4941C26.3895 13.4443 26.3397 13.4277 26.29 13.4277H26.207V13.5605H26.29ZM26.29 13.9754C26.0742 13.9754 25.9082 13.8094 25.9082 13.5937C25.9082 13.3613 26.0908 13.2119 26.29 13.2119C26.4891 13.2119 26.6717 13.3613 26.6717 13.5937C26.6717 13.826 26.4891 13.9754 26.29 13.9754ZM26.29 13.2617C26.124 13.2617 25.9912 13.3945 25.9912 13.5771C25.9912 13.7596 26.1074 13.8924 26.29 13.8924C26.4559 13.8924 26.5887 13.7596 26.5887 13.5771C26.5887 13.3945 26.4559 13.2617 26.29 13.2617Z" fill="#005A9C"/>
<path fill-rule="evenodd" clip-rule="evenodd" d="M29.3939 20.8965H2.65527V24.4815H29.3939V20.8965Z" fill="#FBAA29"/>
<path fill-rule="evenodd" clip-rule="evenodd" d="M29.3441 7.56836H2.60547V11.1368H29.3441V7.56836Z" fill="#005A9C"/>
<path fill-rule="evenodd" clip-rule="evenodd" d="M28.7304 24.2157H28.664V23.7841H28.83C28.9296 23.7841 28.9794 23.8173 28.9794 23.9003C28.9794 23.9833 28.9296 24.0165 28.8632 24.0165L28.9794 24.1991H28.8964L28.7802 24.0165H28.7138V24.2157H28.7304ZM28.8134 23.9833C28.8632 23.9833 28.913 23.9833 28.913 23.9169C28.913 23.8671 28.8632 23.8505 28.8134 23.8505H28.7304V23.9833H28.8134ZM28.8134 24.3817C28.5976 24.3817 28.4316 24.2157 28.4316 23.9999C28.4316 23.7675 28.6142 23.6182 28.8134 23.6182C29.0126 23.6182 29.1951 23.7675 29.1951 23.9999C29.1951 24.2323 29.0126 24.3817 28.8134 24.3817ZM28.8134 23.6846C28.6474 23.6846 28.5146 23.8173 28.5146 23.9999C28.5146 24.1825 28.6308 24.3153 28.8134 24.3153C28.9794 24.3153 29.1121 24.1825 29.1121 23.9999C29.1121 23.8173 28.9794 23.6846 28.8134 23.6846Z" fill="#005A9C"/>
</svg>
